<?xml version="1.0" encoding="UTF-8" standalone="no"?>
<svg
   xmlns:dc="http://purl.org/dc/elements/1.1/"
   xmlns:cc="http://creativecommons.org/ns#"
   xmlns:rdf="http://www.w3.org/1999/02/22-rdf-syntax-ns#"
   xmlns:svg="http://www.w3.org/2000/svg"
   xmlns="http://www.w3.org/2000/svg"
   xmlns:sodipodi="http://sodipodi.sourceforge.net/DTD/sodipodi-0.dtd"
   xmlns:inkscape="http://www.inkscape.org/namespaces/inkscape"
   width="210mm"
   height="297mm"
   viewBox="0 0 210 297"
   version="1.1"
   id="svg8"
   sodipodi:docname="flying-sparrow.svg"
   inkscape:version="1.0 (4035a4f, 2020-05-01)">
  <defs
     id="defs2">
    <inkscape:path-effect
       effect="powerstroke"
       id="path-effect866"
       is_visible="true"
       lpeversion="1"
       offset_points="2,16.4845"
       sort_points="true"
       interpolator_type="CubicBezierJohan"
       interpolator_beta="0.2"
       start_linecap_type="zerowidth"
       linejoin_type="extrp_arc"
       miter_limit="4"
       scale_width="1"
       end_linecap_type="zerowidth" />
  </defs>
  <sodipodi:namedview
     id="base"
     pagecolor="#ffffff"
     bordercolor="#666666"
     borderopacity="1.0"
     inkscape:pageopacity="0.0"
     inkscape:pageshadow="2"
     inkscape:zoom="1.7211279"
     inkscape:cx="349.20722"
     inkscape:cy="323.62498"
     inkscape:document-units="mm"
     inkscape:current-layer="layer1"
     inkscape:document-rotation="0"
     showgrid="false"
     inkscape:window-width="1920"
     inkscape:window-height="1174"
     inkscape:window-x="0"
     inkscape:window-y="26"
     inkscape:window-maximized="0"
     inkscape:snap-global="true" />
  <metadata
     id="metadata5">
    <rdf:RDF>
      <cc:Work
         rdf:about="">
        <dc:format>image/svg+xml</dc:format>
        <dc:type
           rdf:resource="http://purl.org/dc/dcmitype/StillImage" />
        <dc:title></dc:title>
      </cc:Work>
    </rdf:RDF>
  </metadata>
  <g
     inkscape:label="drawing"
     inkscape:groupmode="layer"
     id="layer1">
    <path
       id="path879"
       d="m 90.364056,89.672763 c 0,0 3.134342,-6.410291 3.244966,-5.203891 0.05654,0.618878 1.839406,2.71359 2.301311,1.973059 -1.043715,-2.057265 3.400477,-9.289685 4.490867,-9.026424 -0.48106,2.477821 1.37109,4.192125 1.37109,4.192125 1.70787,-4.377278 2.79454,-8.49314 6.81313,-11.305012 -0.67481,0.318528 -0.77853,6.759083 0.84574,5.770758 1.55677,-2.745933 2.70166,-7.775804 9.02304,-12.177447 -0.0236,0.04665 -5.21411,9.89599 -3.57743,9.729 4.30766,-5.429744 6.40469,-9.763877 13.02505,-13.012565 -9.5e-4,-0.0084 -1.63874,2.48222 -3.04654,5.541838 -1.67833,3.647651 -0.52592,10.379217 -3.84951,14.48647 -3.27768,4.050525 -2.67286,9.428475 -2.67286,9.428475 L 90.364056,89.672763"
       style="fill:none;fill-opacity:1;stroke:#000000;stroke-width:0.1" />
    <g
       id="g898">
      <path
         style="fill:none;fill-opacity:1;stroke:#000000;stroke-width:0.1"
         d="m 133.23086,97.004036 c -1.20304,0.164836 -2.35386,0.27324 -3.5561,0.716977 -4.75162,4.165977 -7.27894,7.175287 -11.15516,8.795447 -1.16136,0.48542 -2.4438,0.84614 -3.94344,1.07591 -10.56317,1.72239 -22.961593,-8.339015 -29.37897,-10.108586 -1.442515,-0.536676 -3.187418,-0.753893 -5.108428,-0.731466 -10.773998,0.125777 -27.087502,7.789602 -26.662404,8.910222 l -1.657361,-3.24323 13.255346,-4.548047 -13.346718,3.121647 -0.546575,-3.293577 c 0,0 5.238325,-0.80418 12.654062,-1.716328 8.809631,-1.083599 12.285416,-2.302565 21.749682,-4.545129 4.317279,-1.022982 4.735403,-1.820389 4.735403,-1.820389 -1.639433,-0.409171 -0.906482,-6.857543 -0.0014,-5.566965 0.464301,0.662058 3.70543,2.902917 3.70543,2.110714 -2.441185,-2.200794 -2.511493,-9.937831 -1.195299,-9.656202 1.116752,2.650708 4.181646,4.484612 4.181646,4.484612 C 95.887906,76.306971 94.3346,71.90395 96.71047,68.895911 c -0.499508,0.340749 3.60623,7.230633 4.66351,6.173354 -0.16368,-2.937507 -2.253973,-8.318289 1.49746,-13.027002 0.006,0.04995 1.00556,10.586376 2.61332,10.407736 0.96608,-5.808546 0.32993,-10.445055 5.14948,-13.92038 -0.007,-0.009 -0.0949,2.655394 0.43035,5.928461 0.6262,3.902124 6.24014,11.10333 5.44105,15.497147 -0.78806,4.33313 -1.39668,6.650091 0.34844,8.912375 2.28754,2.965456 6.28777,0.910445 9.2054,2.088333 0.96546,0.389763 1.96075,0.857153 2.67206,1.617449 0.58041,0.620389 0.60178,1.633423 1.17188,2.263307 1.03899,1.00308 2.19344,1.544307 3.32744,2.167345 z"
         id="path877" />
      <path
         style="fill:none;fill-opacity:1;stroke:#000000;stroke-width:0.1"
         d="m 129.90342,94.836691 c -3.17976,-1.766821 -5.6928,-1.250845 -7.86672,1.690512 l -2.9653,2.133395 c -0.93888,0.675484 -1.90965,1.183371 -2.91985,1.551902 -8.14057,2.96975 -18.842376,-3.109734 -36.062788,-3.460182"
         id="path875" />
      <path
         style="fill:none;fill-opacity:1;stroke:#000000;stroke-width:0.1"
         d="m 129.90342,94.836691 c -0.47255,0.802908 -0.74564,1.685603 -0.22866,2.884322"
         id="path873" />
      <path
         style="fill:none;fill-opacity:1;stroke:#000000;stroke-width:0.1"
         d="m 133.23086,97.004036 -3.81733,-0.598793"
         id="path871" />
      <path
         style="fill:none;fill-opacity:1;stroke:#000000;stroke-width:0.1"
         d="m 116.15155,100.2125 c 2.24436,0.56236 3.29889,4.70027 2.36805,6.30396"
         id="path869" />
      <path
         style="fill:none;fill-opacity:1;stroke:#000000;stroke-width:0.1"
         d="m 127.05581,94.702431 c 0,0.299698 -0.24295,0.542651 -0.54265,0.542653 -0.2997,-2e-6 -0.54265,-0.242955 -0.54265,-0.542653 0,-0.299698 0.24295,-0.542652 0.54265,-0.542654 0.2997,2e-6 0.54265,0.242956 0.54265,0.542654"
         id="path2185" />
    </g>
  </g>
  <g
     inkscape:groupmode="layer"
     id="layer2"
     inkscape:label="color" />
</svg>
