<?xml version="1.0" encoding="UTF-8" standalone="no"?>
<svg
   xmlns:dc="http://purl.org/dc/elements/1.1/"
   xmlns:cc="http://creativecommons.org/ns#"
   xmlns:rdf="http://www.w3.org/1999/02/22-rdf-syntax-ns#"
   xmlns:svg="http://www.w3.org/2000/svg"
   xmlns="http://www.w3.org/2000/svg"
   xmlns:sodipodi="http://sodipodi.sourceforge.net/DTD/sodipodi-0.dtd"
   xmlns:inkscape="http://www.inkscape.org/namespaces/inkscape"
   inkscape:export-ydpi="96"
   inkscape:export-xdpi="96"
   inkscape:export-filename="/Users/prasanna/Documents/Projects/drawing/flying-sparrow.png"
   width="210mm"
   height="297mm"
   viewBox="0 0 210 297"
   version="1.1"
   id="svg8"
   sodipodi:docname="flying-sparrow.svg"
   inkscape:version="1.0 (4035a4f, 2020-05-01)">
  <defs
     id="defs2">
    <inkscape:path-effect
       effect="powerstroke"
       id="path-effect866"
       is_visible="true"
       lpeversion="1"
       offset_points="2,16.4845"
       sort_points="true"
       interpolator_type="CubicBezierJohan"
       interpolator_beta="0.2"
       start_linecap_type="zerowidth"
       linejoin_type="extrp_arc"
       miter_limit="4"
       scale_width="1"
       end_linecap_type="zerowidth" />
  </defs>
  <sodipodi:namedview
     id="base"
     pagecolor="#ffffff"
     bordercolor="#666666"
     borderopacity="1.0"
     inkscape:pageopacity="0.0"
     inkscape:pageshadow="2"
     inkscape:zoom="4.4357554"
     inkscape:cx="348.58758"
     inkscape:cy="314.32268"
     inkscape:document-units="mm"
     inkscape:current-layer="layer2"
     inkscape:document-rotation="0"
     showgrid="false"
     inkscape:window-width="1920"
     inkscape:window-height="1174"
     inkscape:window-x="0"
     inkscape:window-y="26"
     inkscape:window-maximized="0"
     inkscape:snap-global="true" />
  <metadata
     id="metadata5">
    <rdf:RDF>
      <cc:Work
         rdf:about="">
        <dc:format>image/svg+xml</dc:format>
        <dc:type
           rdf:resource="http://purl.org/dc/dcmitype/StillImage" />
        <dc:title></dc:title>
      </cc:Work>
    </rdf:RDF>
  </metadata>
  <g
     sodipodi:insensitive="true"
     inkscape:label="drawing"
     inkscape:groupmode="layer"
     id="layer1">
    <path
       id="path879"
       d="m 90.364056,89.672763 c 0,0 3.134342,-6.410291 3.244966,-5.203891 0.05654,0.618878 1.839406,2.71359 2.301311,1.973059 -1.043715,-2.057265 3.400477,-9.289685 4.490867,-9.026424 -0.48106,2.477821 1.37109,4.192125 1.37109,4.192125 1.70787,-4.377278 2.79454,-8.49314 6.81313,-11.305012 -0.67481,0.318528 -0.77853,6.759083 0.84574,5.770758 1.55677,-2.745933 2.70166,-7.775804 9.02304,-12.177447 -0.0236,0.04665 -5.21411,9.89599 -3.57743,9.729 4.30766,-5.429744 6.40469,-9.763877 13.02505,-13.012565 -9.5e-4,-0.0084 -1.63874,2.48222 -3.04654,5.541838 -1.67833,3.647651 -0.52592,10.379217 -3.84951,14.48647 -3.27768,4.050525 -2.67286,9.428475 -2.67286,9.428475 L 90.364056,89.672763"
       style="display:inline;fill:none;fill-opacity:1;stroke:#000000;stroke-width:0.1" />
    <g
       id="g898">
      <path
         style="fill:none;fill-opacity:1;stroke:#000000;stroke-width:0.1"
         d="m 133.23086,97.004036 c -1.20304,0.164836 -2.35386,0.27324 -3.5561,0.716977 -4.75162,4.165977 -7.27894,7.175287 -11.15516,8.795447 -1.16136,0.48542 -2.4438,0.84614 -3.94344,1.07591 -10.56317,1.72239 -22.961593,-8.339015 -29.37897,-10.108586 -1.442515,-0.536676 -3.187418,-0.753893 -5.108428,-0.731466 -10.773998,0.125777 -27.087502,7.789602 -26.662404,8.910222 l -1.657361,-3.24323 13.255346,-4.548047 -13.346718,3.121647 -0.546575,-3.293577 c 0,0 5.238325,-0.80418 12.654062,-1.716328 8.809631,-1.083599 12.285416,-2.302565 21.749682,-4.545129 4.317279,-1.022982 4.735403,-1.820389 4.735403,-1.820389 -1.639433,-0.409171 -0.906482,-6.857543 -0.0014,-5.566965 0.464301,0.662058 3.70543,2.902917 3.70543,2.110714 -2.441185,-2.200794 -2.511493,-9.937831 -1.195299,-9.656202 1.116752,2.650708 4.181646,4.484612 4.181646,4.484612 C 95.887906,76.306971 94.3346,71.90395 96.71047,68.895911 c -0.499508,0.340749 3.60623,7.230633 4.66351,6.173354 -0.16368,-2.937507 -2.253973,-8.318289 1.49746,-13.027002 0.006,0.04995 1.00556,10.586376 2.61332,10.407736 0.96608,-5.808546 0.32993,-10.445055 5.14948,-13.92038 -0.007,-0.009 -0.0949,2.655394 0.43035,5.928461 0.6262,3.902124 6.24014,11.10333 5.44105,15.497147 -0.78806,4.33313 -1.39668,6.650091 0.34844,8.912375 2.28754,2.965456 6.28777,0.910445 9.2054,2.088333 0.96546,0.389763 1.96075,0.857153 2.67206,1.617449 0.58041,0.620389 0.60178,1.633423 1.17188,2.263307 1.03899,1.00308 2.19344,1.544307 3.32744,2.167345 z"
         id="path877" />
      <path
         style="fill:none;fill-opacity:1;stroke:#000000;stroke-width:0.1"
         d="m 129.90342,94.836691 c -3.17976,-1.766821 -5.6928,-1.250845 -7.86672,1.690512 l -2.9653,2.133395 c -0.93888,0.675484 -1.90965,1.183371 -2.91985,1.551902 -8.14057,2.96975 -18.842376,-3.109734 -36.062788,-3.460182"
         id="path875" />
      <path
         style="fill:none;fill-opacity:1;stroke:#000000;stroke-width:0.1"
         d="m 129.90342,94.836691 c -0.47255,0.802908 -0.74564,1.685603 -0.22866,2.884322"
         id="path873" />
      <path
         style="fill:none;fill-opacity:1;stroke:#000000;stroke-width:0.1"
         d="m 133.23086,97.004036 -3.81733,-0.598793"
         id="path871" />
      <path
         style="fill:none;fill-opacity:1;stroke:#000000;stroke-width:0.1"
         d="m 116.15155,100.2125 c 2.24436,0.56236 3.29889,4.70027 2.36805,6.30396"
         id="path869" />
      <path
         style="fill:none;fill-opacity:1;stroke:#000000;stroke-width:0.1"
         d="m 127.05581,94.702431 c 0,0.299698 -0.24295,0.542651 -0.54265,0.542653 -0.2997,-2e-6 -0.54265,-0.242955 -0.54265,-0.542653 0,-0.299698 0.24295,-0.542652 0.54265,-0.542654 0.2997,2e-6 0.54265,0.242956 0.54265,0.542654"
         id="path2185" />
    </g>
  </g>
  <g
     style="display:inline"
     inkscape:groupmode="layer"
     id="layer2"
     inkscape:label="color">
    <path
       transform="scale(0.26458333)"
       id="path1752"
       d="m 417.65083,221.70484 c -3.73237,2.75662 -7.02394,6.20869 -9.54381,10.12105 -5.67085,8.91781 -6.4496,19.73144 -7.74989,29.93895 -0.57147,4.04503 -0.81016,8.20814 -1.77145,12.15375 -2.04783,-0.48225 -2.80617,-2.82134 -3.53176,-4.53259 -3.14091,-9.06215 -4.30475,-18.6526 -5.53841,-28.1253 -0.32543,-2.03579 -0.36097,-4.17995 -0.96063,-6.13597 -1.1282,1.0107 -1.89232,2.66461 -2.79027,3.9888 -4.74876,7.71477 -5.80428,17.08212 -4.99914,25.95207 0.41179,6.17824 1.9339,12.25202 2.35286,18.40516 -0.13544,1.1495 -1.78607,0.60324 -2.43626,0.24305 -3.70519,-2.37721 -6.12079,-6.22067 -8.62487,-9.7349 -2.59828,-3.91449 -5.03911,-7.97936 -6.74341,-12.3693 -0.71555,-0.32963 -1.04297,0.96077 -1.42014,1.38225 -3.65702,6.29715 -3.27679,13.91 -2.31526,20.86811 1.22834,7.50772 3.3701,14.82622 4.84631,22.28343 -3.89513,-2.38839 -7.34346,-5.50311 -10.45707,-8.8372 -2.32796,-2.42688 -3.97906,-5.41006 -5.62495,-8.27692 -2.5368,1.76588 -2.45533,5.273 -2.67183,8.04674 -0.25701,8.35543 0.64985,17.03568 4.5687,24.54486 0.69545,1.58268 2.11859,2.69239 2.90783,4.18739 -0.28592,0.78775 -1.57691,0.36642 -2.17035,0.12743 -4.60544,-2.00656 -8.66998,-5.06328 -12.28604,-8.49956 -1.03006,-0.75813 -1.61273,0.79229 -1.84183,1.54902 -1.38276,4.4013 -1.34785,9.13901 -0.91981,13.68892 0.38903,2.15625 0.96704,4.81945 3.06062,5.9482 0.66038,0.0686 -0.58661,0.79806 -0.75954,1.00744 -4.27095,2.78239 -9.35267,3.95369 -14.2052,5.30649 -15.51566,3.84075 -31.02441,7.7378 -46.59274,11.36249 -22.42909,5.22938 -45.43334,7.17674 -68.19537,10.46418 -5.85787,0.80049 -11.71296,1.62018 -17.55727,2.5145 -0.36052,1.54521 0.31379,3.31642 0.45302,4.93528 0.49487,2.39868 0.67723,4.94313 1.49405,7.23544 9.50169,-2.00645 18.97487,-4.38034 28.4615,-6.54441 7.01811,-1.63014 14.02778,-3.28289 21.06017,-4.85048 -16.30242,5.84036 -32.735,11.30746 -49.08708,17.00625 -0.33493,0.69153 0.64127,1.45004 0.77953,2.14928 1.62081,3.13034 3.12354,6.37827 4.87762,9.40368 4.82197,-4.22181 10.79283,-6.92672 16.50547,-9.76364 19.12523,-8.96419 39.2358,-15.99067 59.93766,-20.27671 7.75515,-1.53593 15.58462,-2.89694 23.52303,-2.75123 14.53467,-0.17261 29.03151,1.40802 43.3666,3.63751 19.44907,3.07659 38.60448,7.77298 58.04902,10.89048 10.27654,1.55007 20.92018,2.1099 31.12248,-0.23004 6.03906,-1.406 11.62907,-4.27811 16.60452,-7.93841 3.74599,-2.76921 7.78709,-5.20918 11.15817,-8.44435 3.76055,-4.80663 9.20659,-8.96018 15.51066,-9.16713 4.26482,-0.20963 8.34627,1.27064 12.16438,3.00449 0.70006,-0.34291 -0.40444,-1.39695 -0.37602,-1.94839 -1.03276,-2.47238 -1.7833,-5.29396 -4.1268,-6.89146 -3.94943,-3.03418 -8.60749,-5.38321 -13.56556,-6.12792 -6.95259,-0.54847 -14.00318,0.29068 -20.89556,-0.90639 -5.42749,-1.11259 -9.67107,-5.41437 -11.75581,-10.39849 -2.0087,-4.28141 -1.59926,-9.15395 -1.25852,-13.72996 0.64832,-6.89649 2.90543,-13.62776 2.75777,-20.60132 -0.5219,-6.71619 -3.14849,-13.05808 -5.84703,-19.1571 -4.3204,-9.68025 -9.71706,-18.89756 -13.44998,-28.82485 -2.18626,-6.55395 -2.52915,-13.54689 -2.90738,-20.3954 -0.1453,-2.26962 -0.006,-4.6007 -0.35773,-6.83664 l -0.18889,-0.059 z"
       style="fill:#9f5e55;fill-opacity:1;stroke:none;stroke-width:0.0852059" />
    <path
       transform="scale(0.26458333)"
       id="path1754"
       d="m 482.20041,229.84888 c -8.38527,4.1173 -16.04549,9.73015 -22.55304,16.43991 -7.90336,8.05933 -14.21788,17.4686 -21.11643,26.36058 -1.15258,1.6561 -2.5693,3.19764 -3.57753,4.9203 0.72436,2.98663 2.33199,5.70307 3.19976,8.65966 1.88481,5.52149 3.31008,11.45498 1.98561,17.26971 -1.26567,7.94858 -3.40527,16.02388 -2.20885,24.1286 1.08127,5.17279 4.28991,10.09287 9.00266,12.58109 0.36012,-1.72016 0.0564,-3.67133 0.18531,-5.47525 0.16294,-10.58416 3.39948,-21.27032 9.93835,-29.68417 5.5073,-6.99849 8.04113,-15.77379 9.25499,-24.46857 1.43086,-8.87224 1.67365,-17.95535 4.08259,-26.64316 2.23758,-6.77911 6.00018,-12.94472 9.46147,-19.16379 0.85927,-1.58546 1.9897,-3.0851 2.61855,-4.76639 -0.0303,-0.13034 -0.16172,-0.18038 -0.27344,-0.15852 z"
       style="fill:#9e4435;fill-opacity:1;stroke:none;stroke-width:0.0852059" />
    <path
       transform="scale(0.26458333)"
       id="path1756"
       d="m 446.55612,242.45023 c -6.85359,4.8288 -12.90789,10.81296 -17.97274,17.49015 -0.6018,1.0269 -2.12239,2.03596 -0.95831,3.23273 1.8295,3.54545 3.48663,7.23519 5.42354,10.69088 0.886,-1.37905 1.17422,-3.30122 1.8568,-4.88397 3.32436,-9.03907 7.83217,-17.56219 11.92767,-26.26208 0.0727,-0.18908 -0.1098,-0.28583 -0.27696,-0.26771 z"
       style="fill:#9e4435;fill-opacity:1;stroke:none;stroke-width:0.0852059" />
    <path
       transform="scale(0.26458333)"
       id="path1758"
       d="m 351.39503,320.96437 c -0.50762,1.03174 -1.54721,1.96722 -1.72912,3.06635 1.48308,1.07747 3.25972,2.00192 5.09047,2.19452 0.66139,-0.44507 -0.52354,-1.16828 -0.67011,-1.62985 -0.94599,-1.1535 -1.73654,-2.45583 -2.51996,-3.68958 z"
       style="fill:#9e4435;fill-opacity:1;stroke:none;stroke-width:0.0852059" />
    <path
       transform="scale(0.26458333)"
       id="path1760"
       d="m 317.33498,366.4739 c -0.74461,0.15205 0.15876,0.73517 0.54335,0.66664 7.91696,2.07032 15.43521,5.41422 22.67541,9.20297 14.01974,7.14554 27.74782,14.92331 42.2334,21.11192 13.38379,5.53784 27.60193,10.12421 42.24379,9.85583 7.63226,-0.35835 15.3191,-1.68486 22.37676,-4.67658 1.52122,-1.05356 1.49133,-3.24242 1.71017,-4.89717 0.13943,-5.74238 -1.72758,-11.66492 -5.50172,-16.03975 -1.29066,-1.3215 -2.99172,-2.52521 -4.77423,-2.82173 -12.39138,4.38796 -25.825,3.25394 -38.56178,1.1899 -22.40171,-3.81667 -44.50102,-9.48987 -67.11282,-12.10009 -5.26462,-0.59999 -10.54031,-1.20904 -15.83233,-1.49194 z"
       style="fill:#fde7d6;fill-opacity:1;stroke:none;stroke-width:0.0852059" />
    <path
       transform="scale(0.26458333)"
       id="path1762"
       d="m 478.04077,356.06048 c -1.48913,-0.0195 -2.38781,1.78033 -1.47285,2.97167 0.7798,1.45967 3.43667,0.82384 3.48464,-0.86565 0.18714,-1.15237 -0.85877,-2.22588 -2.01179,-2.10602 z"
       style="fill:#000000;fill-opacity:1;stroke:none;stroke-width:0.0852059" />
    <path
       transform="scale(0.26458333)"
       id="path1770"
       d="m 490.87376,358.66905 c -0.99096,1.65718 -1.68005,3.54528 -1.76613,5.48628 0.20154,0.42448 0.8783,0.22443 1.27055,0.38413 3.87069,0.58801 7.72742,1.28158 11.61011,1.78301 0.33252,0.0823 0.41432,-0.41472 0.0758,-0.46858 -3.831,-2.07867 -7.71978,-4.17152 -10.89908,-7.21006 -0.11177,-0.0612 -0.19171,-0.0544 -0.29127,0.0252 z"
       style="fill:#fff100;fill-opacity:1;stroke:none;stroke-width:0.0301249" />
    <path
       transform="scale(0.26458333)"
       id="path1772"
       d="m 489.27467,364.45765 c -0.39771,0.17444 -0.11481,0.71944 -0.15133,1.05523 0.13991,1.26024 0.43391,2.53316 0.97532,3.67462 0.42531,0.13809 0.91648,-0.24333 1.36542,-0.31633 3.32348,-1.09936 6.80316,-1.51418 10.2521,-2.04634 0.40498,-0.12646 0.069,-0.52186 -0.2276,-0.46329 -4.0623,-0.68605 -8.13274,-1.34497 -12.21391,-1.90389 z"
       style="fill:#e1d200;fill-opacity:1;stroke:none;stroke-width:0.0301249" />
    <path
       inkscape:export-ydpi="96"
       inkscape:export-xdpi="96"
       transform="scale(0.26458333)"
       id="path1774"
       d="m 478.08216,354.74129 c -5.09296,-0.0433 -9.90897,2.4535 -13.32,6.14632 -1.97507,2.00617 -3.67338,4.29823 -6.0881,5.82972 -5.97617,4.29072 -11.80146,9.00094 -18.66805,11.79828 -0.27796,0.71866 0.98984,0.79258 1.38875,1.18708 4.92063,3.34093 7.12485,9.33961 7.77095,15.02809 0.28384,2.37487 -0.035,4.84502 -0.68982,7.12323 0.65316,0.485 1.53816,-0.45535 2.22138,-0.60015 11.77194,-5.76496 20.93843,-15.40924 30.58398,-24.03577 2.86534,-2.6084 5.69948,-5.25275 8.64271,-7.77383 -0.5196,-1.97805 -1.20106,-4.15034 -0.80313,-6.25862 0.10736,-1.68629 1.16986,-3.15631 1.53625,-4.71445 -3.75869,-2.28023 -8.14097,-3.77114 -12.57492,-3.7299 z m 0.12813,1.10299 c 2.00491,-0.0792 2.81367,3.03881 0.97089,3.8959 -1.52588,1.10008 -3.62485,-0.73042 -3.01351,-2.38606 0.28446,-0.855 1.1249,-1.5273 2.04262,-1.50984 z"
       style="fill:#ffffff;fill-opacity:1;stroke:none;stroke-width:0.0852059" />
  </g>
  <path
     transform="scale(0.26458333)"
     id="path1674"
     d="m 467.35435,272.69539 c -0.25939,0.40204 0.21664,0.83188 0.10259,0.166 -0.0245,-0.0464 -0.0345,-0.16181 -0.10259,-0.166 z"
     style="fill:#01f469;fill-opacity:0.996078;stroke:#000000;stroke-width:0.0852059" />
</svg>
