<?xml version="1.0" encoding="UTF-8" standalone="no"?>
<svg
   xmlns:dc="http://purl.org/dc/elements/1.1/"
   xmlns:cc="http://creativecommons.org/ns#"
   xmlns:rdf="http://www.w3.org/1999/02/22-rdf-syntax-ns#"
   xmlns:svg="http://www.w3.org/2000/svg"
   xmlns="http://www.w3.org/2000/svg"
   xmlns:sodipodi="http://sodipodi.sourceforge.net/DTD/sodipodi-0.dtd"
   xmlns:inkscape="http://www.inkscape.org/namespaces/inkscape"
   inkscape:export-ydpi="96"
   inkscape:export-xdpi="96"
   inkscape:export-filename="/Users/prasanna/Documents/Projects/drawing/flying-sparrow.png"
   width="840"
   height="512"
   viewBox="0 0 222.25 135.46667"
   version="1.1"
   id="svg8"
   sodipodi:docname="Sparrow Flying.svg"
   inkscape:version="1.0 (4035a4f, 2020-05-01)">
  <defs
     id="defs2">
    <inkscape:path-effect
       effect="powerstroke"
       id="path-effect866"
       is_visible="true"
       lpeversion="1"
       offset_points="2,16.4845"
       sort_points="true"
       interpolator_type="CubicBezierJohan"
       interpolator_beta="0.2"
       start_linecap_type="zerowidth"
       linejoin_type="extrp_arc"
       miter_limit="4"
       scale_width="1"
       end_linecap_type="zerowidth" />
  </defs>
  <sodipodi:namedview
     units="px"
     id="base"
     pagecolor="#ffffff"
     bordercolor="#666666"
     borderopacity="1.0"
     inkscape:pageopacity="0.0"
     inkscape:pageshadow="2"
     inkscape:zoom="1.9375"
     inkscape:cx="420"
     inkscape:cy="256"
     inkscape:document-units="mm"
     inkscape:current-layer="layer2"
     inkscape:document-rotation="0"
     showgrid="false"
     inkscape:window-width="1920"
     inkscape:window-height="1200"
     inkscape:window-x="0"
     inkscape:window-y="0"
     inkscape:window-maximized="0"
     inkscape:snap-global="true"
     fit-margin-top="11"
     fit-margin-left="10"
     fit-margin-right="10"
     fit-margin-bottom="11"
     lock-margins="false" />
  <metadata
     id="metadata5">
    <rdf:RDF>
      <cc:Work
         rdf:about="">
        <dc:format>image/svg+xml</dc:format>
        <dc:type
           rdf:resource="http://purl.org/dc/dcmitype/StillImage" />
        <dc:title></dc:title>
      </cc:Work>
    </rdf:RDF>
  </metadata>
  <g
     sodipodi:insensitive="true"
     inkscape:label="drawing"
     inkscape:groupmode="layer"
     id="layer1"
     transform="translate(-48.427607,-55.578648)">
    <path
       id="path879"
       d="m 154.64951,140.40919 c 0,0 8.23398,-16.83994 8.52459,-13.67071 0.14853,1.6258 4.83215,7.12865 6.04558,5.18326 -2.74186,-5.40447 8.93312,-24.40417 11.79759,-23.71257 -1.26375,6.50928 3.60188,11.01278 3.60188,11.01278 4.4866,-11.49918 7.3413,-22.311627 17.89821,-29.698464 -1.77274,0.836778 -2.04521,17.756234 2.22177,15.159884 4.08967,-7.213616 7.09731,-20.427176 23.70369,-31.99037 -0.062,0.122551 -13.69756,25.996941 -9.39797,25.558255 11.3163,-14.264033 16.82523,-25.649877 34.21703,-34.184238 -0.002,-0.02207 -4.305,6.520836 -8.00331,14.558507 -4.409,9.582443 -1.3816,27.266386 -10.11273,38.056216 -8.61052,10.6408 -7.02165,24.76877 -7.02165,24.76877 l -73.47468,-1.04132"
       style="display:inline;fill:none;fill-opacity:1;stroke:#000000;stroke-width:0.262702" />
    <g
       transform="matrix(2.6270177,0,0,2.6270177,-82.738457,-95.16274)"
       id="g898">
      <path
         style="fill:none;fill-opacity:1;stroke:#000000;stroke-width:0.1"
         d="m 133.23086,97.004036 c -1.20304,0.164836 -2.35386,0.27324 -3.5561,0.716977 -4.75162,4.165977 -7.27894,7.175287 -11.15516,8.795447 -1.16136,0.48542 -2.4438,0.84614 -3.94344,1.07591 -10.56317,1.72239 -22.961593,-8.339015 -29.37897,-10.108586 -1.442515,-0.536676 -3.187418,-0.753893 -5.108428,-0.731466 -10.773998,0.125777 -27.087502,7.789602 -26.662404,8.910222 l -1.657361,-3.24323 13.255346,-4.548047 -13.346718,3.121647 -0.546575,-3.293577 c 0,0 5.238325,-0.80418 12.654062,-1.716328 8.809631,-1.083599 12.285416,-2.302565 21.749682,-4.545129 4.317279,-1.022982 4.735403,-1.820389 4.735403,-1.820389 -1.639433,-0.409171 -0.906482,-6.857543 -0.0014,-5.566965 0.464301,0.662058 3.70543,2.902917 3.70543,2.110714 -2.441185,-2.200794 -2.511493,-9.937831 -1.195299,-9.656202 1.116752,2.650708 4.181646,4.484612 4.181646,4.484612 C 95.887906,76.306971 94.3346,71.90395 96.71047,68.895911 c -0.499508,0.340749 3.60623,7.230633 4.66351,6.173354 -0.16368,-2.937507 -2.253973,-8.318289 1.49746,-13.027002 0.006,0.04995 1.00556,10.586376 2.61332,10.407736 0.96608,-5.808546 0.32993,-10.445055 5.14948,-13.92038 -0.007,-0.009 -0.0949,2.655394 0.43035,5.928461 0.6262,3.902124 6.24014,11.10333 5.44105,15.497147 -0.78806,4.33313 -1.39668,6.650091 0.34844,8.912375 2.28754,2.965456 6.28777,0.910445 9.2054,2.088333 0.96546,0.389763 1.96075,0.857153 2.67206,1.617449 0.58041,0.620389 0.60178,1.633423 1.17188,2.263307 1.03899,1.00308 2.19344,1.544307 3.32744,2.167345 z"
         id="path877" />
      <path
         style="fill:none;fill-opacity:1;stroke:#000000;stroke-width:0.1"
         d="m 129.90342,94.836691 c -3.17976,-1.766821 -5.6928,-1.250845 -7.86672,1.690512 l -2.9653,2.133395 c -0.93888,0.675484 -1.90965,1.183371 -2.91985,1.551902 -8.14057,2.96975 -18.842376,-3.109734 -36.062788,-3.460182"
         id="path875" />
      <path
         style="fill:none;fill-opacity:1;stroke:#000000;stroke-width:0.1"
         d="m 129.90342,94.836691 c -0.47255,0.802908 -0.74564,1.685603 -0.22866,2.884322"
         id="path873" />
      <path
         style="fill:none;fill-opacity:1;stroke:#000000;stroke-width:0.1"
         d="m 133.23086,97.004036 -3.81733,-0.598793"
         id="path871" />
      <path
         style="fill:none;fill-opacity:1;stroke:#000000;stroke-width:0.1"
         d="m 116.15155,100.2125 c 2.24436,0.56236 3.29889,4.70027 2.36805,6.30396"
         id="path869" />
      <path
         style="fill:none;fill-opacity:1;stroke:#000000;stroke-width:0.1"
         d="m 127.05581,94.702431 c 0,0.299698 -0.24295,0.542651 -0.54265,0.542653 -0.2997,-2e-6 -0.54265,-0.242955 -0.54265,-0.542653 0,-0.299698 0.24295,-0.542652 0.54265,-0.542654 0.2997,2e-6 0.54265,0.242956 0.54265,0.542654"
         id="path2185" />
    </g>
  </g>
  <g
     sodipodi:insensitive="true"
     style="display:inline"
     inkscape:groupmode="layer"
     id="layer2"
     inkscape:label="color"
     transform="translate(-48.427607,-55.578648)">
    <path
       id="path1752"
       d="m 207.55605,58.936554 c -2.59424,1.91603 -4.88209,4.315443 -6.63357,7.034788 -3.94161,6.198458 -4.48289,13.714635 -5.38668,20.809519 -0.3972,2.811559 -0.56311,5.705191 -1.23127,8.447647 -1.42337,-0.335195 -1.95047,-1.961015 -2.4548,-3.150445 -2.18314,-6.298784 -2.99208,-12.964771 -3.84956,-19.548914 -0.22619,-1.415006 -0.25089,-2.905337 -0.6677,-4.264898 -0.78417,0.702502 -1.31528,1.852077 -1.93942,2.772475 -3.30069,5.362267 -4.03435,11.873185 -3.47472,18.038378 0.28622,4.294279 1.34418,8.515951 1.63539,12.792786 -0.0941,0.79898 -1.24144,0.41929 -1.69336,0.16893 -2.57535,-1.65231 -4.25435,-4.323767 -5.99485,-6.766385 -1.80597,-2.720826 -3.50251,-5.546175 -4.68711,-8.597469 -0.49735,-0.229114 -0.72493,0.667798 -0.98709,0.960754 -2.54186,4.376929 -2.27758,9.668355 -1.60925,14.50469 0.85377,5.21836 2.34243,10.30519 3.3685,15.48844 -2.70737,-1.66009 -5.10419,-3.82502 -7.26835,-6.14243 -1.61808,-1.68684 -2.7657,-3.76034 -3.9097,-5.753 -1.76324,1.2274 -1.70662,3.66508 -1.8571,5.59301 -0.17864,5.80757 0.45169,11.84091 3.17554,17.06027 0.48339,1.10007 1.47256,1.87139 2.02114,2.91051 -0.19874,0.54754 -1.09606,0.25469 -1.50854,0.0886 -3.20108,-1.39469 -6.0262,-3.51931 -8.5396,-5.90775 -0.71596,-0.52695 -1.12095,0.55069 -1.28019,1.07667 -0.96111,3.05919 -0.93684,6.3522 -0.63933,9.51469 0.27041,1.49873 0.67216,3.34983 2.12733,4.13438 0.45901,0.0477 -0.40773,0.55471 -0.52793,0.70024 -2.96858,1.93394 -6.50071,2.74807 -9.87353,3.68836 -10.7844,2.66957 -21.56399,5.37827 -32.38499,7.89767 -15.589677,3.63476 -31.579128,4.9883 -47.400221,7.27328 -4.0716,0.5564 -8.141269,1.12613 -12.203445,1.74774 -0.250585,1.07403 0.218105,2.30513 0.314879,3.43034 0.343966,1.66724 0.470718,3.4358 1.038462,5.02911 6.604292,-1.39462 13.188769,-3.04463 19.782594,-4.54879 4.878044,-1.13306 9.750221,-2.28183 14.638189,-3.3714 -11.331243,4.05943 -22.752955,7.85942 -34.118715,11.82045 -0.232798,0.48065 0.445724,1.00787 0.541824,1.49389 1.126568,2.17579 2.171064,4.43331 3.390263,6.53617 3.351583,-2.93444 7.50172,-4.81453 11.472376,-6.78637 13.29328,-6.2307 27.271435,-11.11456 41.660574,-14.09363 5.39033,-1.06757 10.83233,-2.01356 16.35004,-1.91229 10.10254,-0.11997 20.17879,0.97867 30.14261,2.52831 13.51837,2.13843 26.83262,5.40273 40.34784,7.56959 7.14287,1.0774 14.54089,1.46652 21.63215,-0.15989 4.19754,-0.97726 8.08296,-2.97357 11.54122,-5.51771 2.60371,-1.92478 5.41254,-3.62072 7.75566,-5.86938 2.61383,-3.34092 6.39918,-6.2279 10.78092,-6.37175 2.96432,-0.1457 5.8012,0.88318 8.45503,2.08832 0.48659,-0.23835 -0.28111,-0.97097 -0.26136,-1.35426 -0.71783,-1.71846 -1.23951,-3.67965 -2.86839,-4.79001 -2.74511,-2.10895 -5.98277,-3.74168 -9.42895,-4.25931 -4.8325,-0.38122 -9.73312,0.20205 -14.52377,-0.63 -3.77246,-0.77332 -6.72202,-3.76334 -8.17105,-7.22762 -1.39618,-2.97586 -1.11159,-6.36259 -0.87476,-9.54322 0.45063,-4.79351 2.01947,-9.47218 1.91683,-14.31926 -0.36275,-4.66819 -2.1884,-9.07621 -4.06406,-13.315428 -3.00296,-6.728404 -6.75399,-13.135034 -9.34862,-20.035147 -1.51959,-4.555422 -1.75792,-9.41597 -2.02081,-14.17613 -0.101,-1.577534 -0.004,-3.197786 -0.24865,-4.75191 l -0.13129,-0.04101 z"
       style="fill:#9f5e55;fill-opacity:1;stroke:none;stroke-width:0.0592236" />
    <path
       id="path1754"
       d="m 252.42221,64.597192 c -5.82831,2.861791 -11.15266,6.763087 -15.67583,11.426807 -5.49335,5.601759 -9.88235,12.141814 -14.67729,18.322319 -0.80112,1.151097 -1.78583,2.222568 -2.48662,3.419928 0.50348,2.075903 1.62089,3.964004 2.22404,6.019024 1.31007,3.8378 2.30072,7.96196 1.38013,12.00358 -0.87972,5.52478 -2.36688,11.13764 -1.53529,16.77094 0.75155,3.59543 2.98176,7.01521 6.25743,8.74468 0.25031,-1.19562 0.0392,-2.55181 0.1288,-3.80566 0.11326,-7.35668 2.36286,-14.78425 6.9078,-20.63243 3.82793,-4.8644 5.58911,-10.96381 6.43282,-17.007244 0.99454,-6.166784 1.1633,-12.480137 2.83767,-18.51873 1.55526,-4.711923 4.17051,-8.997423 6.57634,-13.320082 0.59725,-1.101997 1.38297,-2.144345 1.82006,-3.312951 -0.0211,-0.0906 -0.11241,-0.125376 -0.19006,-0.110181 z"
       style="fill:#9e4435;fill-opacity:1;stroke:none;stroke-width:0.0592236" />
    <path
       id="path1756"
       d="m 227.64711,73.35595 c -4.76369,3.35633 -8.97182,7.515711 -12.49222,12.156792 -0.4183,0.713763 -1.4752,1.415125 -0.66609,2.246958 1.27162,2.464319 2.42343,5.028928 3.76971,7.430858 0.61583,-0.95853 0.81616,-2.294563 1.2906,-3.394677 2.31064,-6.282742 5.44387,-12.206865 8.2905,-18.253855 0.0505,-0.131423 -0.0763,-0.198671 -0.1925,-0.186076 z"
       style="fill:#9e4435;fill-opacity:1;stroke:none;stroke-width:0.0592236" />
    <path
       id="path1758"
       d="m 161.50396,127.92839 c -0.35283,0.71712 -1.07541,1.36734 -1.20185,2.13131 1.03083,0.74891 2.26571,1.39146 3.53821,1.52533 0.4597,-0.30935 -0.3639,-0.81203 -0.46577,-1.13285 -0.65753,-0.80176 -1.20701,-1.70696 -1.75154,-2.5645 z"
       style="fill:#9e4435;fill-opacity:1;stroke:none;stroke-width:0.0592236" />
    <path
       id="path1760"
       d="m 137.83001,159.56047 c -0.51756,0.10569 0.11035,0.51099 0.37766,0.46336 5.5028,1.43901 10.72848,3.76324 15.76089,6.39666 9.74463,4.96662 19.28654,10.37268 29.35496,14.67416 9.3026,3.84916 19.18514,7.03699 29.36218,6.85045 5.30492,-0.24908 10.64777,-1.17109 15.55331,-3.25053 1.05734,-0.73229 1.03657,-2.25369 1.18868,-3.40385 0.0969,-3.99133 -1.20079,-8.10788 -3.82406,-11.14867 -0.89709,-0.91853 -2.07944,-1.75519 -3.3184,-1.96129 -8.61281,3.04992 -17.95005,2.2617 -26.80295,0.82706 -15.57064,-2.65284 -30.9311,-6.59608 -46.64777,-8.41035 -3.65926,-0.41703 -7.32621,-0.84036 -11.0045,-1.037 z"
       style="fill:#fde7d6;fill-opacity:1;stroke:none;stroke-width:0.0592236" />
    <path
       id="path1762"
       d="m 249.53099,152.32247 c -1.03504,-0.0136 -1.65968,1.23744 -1.02373,2.0655 0.54202,1.01457 2.38871,0.57262 2.42205,-0.60168 0.13008,-0.80097 -0.5969,-1.54713 -1.39832,-1.46382 z"
       style="fill:#000000;fill-opacity:1;stroke:none;stroke-width:0.0592236" />
    <path
       id="path1770"
       d="m 258.45075,154.13559 c -0.68878,1.15185 -1.16774,2.4642 -1.22757,3.81333 0.14008,0.29504 0.61047,0.15599 0.88311,0.26699 2.69038,0.40871 5.37106,0.89078 8.06979,1.23931 0.23112,0.0572 0.28797,-0.28826 0.0527,-0.32569 -2.66279,-1.44482 -5.36575,-2.89948 -7.57557,-5.01147 -0.0777,-0.0425 -0.13325,-0.0378 -0.20245,0.0175 z"
       style="fill:#fff100;fill-opacity:1;stroke:none;stroke-width:0.0209388" />
    <path
       id="path1772"
       d="m 257.33928,158.15905 c -0.27643,0.12124 -0.0798,0.50006 -0.10518,0.73345 0.0972,0.87595 0.30159,1.76071 0.67791,2.5541 0.29562,0.096 0.63701,-0.16913 0.94905,-0.21987 2.31004,-0.76413 4.72864,-1.05245 7.12588,-1.42234 0.28149,-0.0879 0.048,-0.36272 -0.1582,-0.32201 -2.82356,-0.47685 -5.65278,-0.93485 -8.48946,-1.32333 z"
       style="fill:#e1d200;fill-opacity:1;stroke:none;stroke-width:0.0209388" />
    <path
       inkscape:export-ydpi="96"
       inkscape:export-xdpi="96"
       id="path1774"
       d="m 249.55976,151.40555 c -3.53994,-0.0301 -6.88738,1.70534 -9.25827,4.27209 -1.3728,1.39442 -2.55324,2.98755 -4.23162,4.05203 -4.15383,2.98233 -8.20279,6.25624 -12.97551,8.20057 -0.1932,0.49952 0.688,0.5509 0.96527,0.8251 3.42016,2.32217 4.95223,6.49164 5.40131,10.4455 0.19729,1.65069 -0.0243,3.36761 -0.47947,4.95111 0.45399,0.33711 1.06913,-0.3165 1.54401,-0.41714 8.18226,-4.00702 14.55357,-10.71043 21.25785,-16.70643 1.9916,-1.813 3.96151,-3.651 6.00725,-5.40331 -0.36116,-1.37488 -0.83481,-2.88476 -0.55823,-4.35015 0.0746,-1.17208 0.81313,-2.19384 1.0678,-3.27685 -2.61254,-1.58491 -5.65851,-2.62119 -8.74039,-2.59252 z m 0.0891,0.76664 c 1.39354,-0.055 1.95568,2.11218 0.67483,2.70791 -1.06059,0.76463 -2.51951,-0.50769 -2.09459,-1.65847 0.19772,-0.59428 0.78188,-1.06157 1.41976,-1.04944 z"
       style="fill:#ffffff;fill-opacity:1;stroke:none;stroke-width:0.0592236" />
  </g>
  <path
     id="path1674"
     d="m 193.67563,38.799656 c -0.1803,0.279443 0.15058,0.578211 0.0713,0.115378 -0.0171,-0.03226 -0.0239,-0.112462 -0.0713,-0.115378 z"
     style="fill:#01f469;fill-opacity:0.996078;stroke:#000000;stroke-width:0.0592238" />
</svg>
