<?xml version="1.0" encoding="UTF-8" standalone="no"?>
<svg
   xmlns:dc="http://purl.org/dc/elements/1.1/"
   xmlns:cc="http://creativecommons.org/ns#"
   xmlns:rdf="http://www.w3.org/1999/02/22-rdf-syntax-ns#"
   xmlns:svg="http://www.w3.org/2000/svg"
   xmlns="http://www.w3.org/2000/svg"
   xmlns:sodipodi="http://sodipodi.sourceforge.net/DTD/sodipodi-0.dtd"
   xmlns:inkscape="http://www.inkscape.org/namespaces/inkscape"
   sodipodi:docname="head.svg"
   inkscape:version="1.0 (4035a4f, 2020-05-01)"
   id="svg8"
   version="1.1"
   viewBox="0 0 512.00001 512"
   height="512"
   width="512">
  <defs
     id="defs2">
    <inkscape:path-effect
       end_linecap_type="zerowidth"
       scale_width="1"
       miter_limit="4"
       linejoin_type="extrp_arc"
       start_linecap_type="zerowidth"
       interpolator_beta="0.2"
       interpolator_type="CubicBezierJohan"
       sort_points="true"
       offset_points="2,16.4845"
       lpeversion="1"
       is_visible="true"
       id="path-effect1708"
       effect="powerstroke" />
    <inkscape:path-effect
       end_linecap_type="zerowidth"
       scale_width="1"
       miter_limit="4"
       linejoin_type="extrp_arc"
       start_linecap_type="zerowidth"
       interpolator_beta="0.2"
       interpolator_type="CubicBezierJohan"
       sort_points="true"
       offset_points="1,16.4845"
       lpeversion="1"
       is_visible="true"
       id="path-effect1704"
       effect="powerstroke" />
  </defs>
  <sodipodi:namedview
     inkscape:document-rotation="0"
     showguides="false"
     inkscape:window-maximized="0"
     inkscape:window-y="0"
     inkscape:window-x="0"
     inkscape:window-height="1200"
     inkscape:window-width="1920"
     inkscape:snap-global="true"
     inkscape:showpageshadow="true"
     borderlayer="false"
     showborder="true"
     inkscape:pagecheckerboard="false"
     fit-margin-bottom="0"
     fit-margin-right="0"
     fit-margin-left="0"
     fit-margin-top="0"
     units="px"
     showgrid="false"
     inkscape:current-layer="layer3"
     inkscape:document-units="mm"
     inkscape:cy="256"
     inkscape:cx="256"
     inkscape:zoom="1.9375"
     inkscape:pageshadow="2"
     inkscape:pageopacity="0.0"
     borderopacity="1.0"
     bordercolor="#666666"
     pagecolor="#ffffff"
     id="base" />
  <metadata
     id="metadata5">
    <rdf:RDF>
      <cc:Work
         rdf:about="">
        <dc:format>image/svg+xml</dc:format>
        <dc:type
           rdf:resource="http://purl.org/dc/dcmitype/StillImage" />
        <dc:title />
      </cc:Work>
    </rdf:RDF>
  </metadata>
  <g
     style="display:inline"
     inkscape:label="color"
     id="layer3"
     inkscape:groupmode="layer">
    <path
       id="path1551"
       d="m 132.28468,8.3964803 c -7.14616,0.1715321 -14.30114,0.2032271 -21.43996,0.5548655 -0.68442,2.9783642 0.45511,6.5165162 0.44334,9.6635562 0.83737,14.319249 2.40928,29.570204 -3.98371,42.905804 -7.595525,13.338443 -20.355674,22.67868 -29.584122,34.81705 -11.752972,15.325324 -23.183037,30.920444 -34.138447,46.823734 -2.997241,4.08126 -0.647967,9.32584 0.09627,13.75466 1.371214,4.11326 1.972666,9.16745 5.537267,12.03313 3.059176,0.62664 6.543727,0.77416 9.555901,-0.005 0.361215,-1.93599 -0.852686,-4.14302 -0.7588,-6.20497 -1.605968,-9.32121 0.705307,-19.16433 6.668382,-26.60921 5.746495,-8.13069 14.625662,-13.20601 20.309879,-21.38147 11.938115,-16.502826 26.38887,-31.32758 43.72671,-42.161494 6.02175,-4.486234 13.18645,-7.199622 20.65425,-7.776395 20.7627,-2.203508 42.76831,0.539873 60.80538,11.625256 4.90324,3.026191 9.3166,7.280905 10.47619,13.140788 4.80562,16.707305 16.50432,31.165855 31.87785,39.288815 9.92072,6.07561 22.13703,7.37823 31.45341,14.45963 5.90399,7.23362 6.64634,17.2095 6.41097,26.206 0.45798,15.89358 -1.26768,31.69024 -2.45766,47.51202 -1.25005,20.83808 -1.77831,41.73839 -2.54652,62.58222 3.77608,24.54335 7.70683,49.14252 9.31574,73.91479 9.09059,50.38485 21.77832,100.03912 34.92551,149.49512 13.1186,0.88586 26.58068,0.27655 39.83229,0.43556 32.26825,-0.0984 64.53771,-0.23248 96.80125,-0.83308 -0.45465,-4.93123 -2.93472,-10.05128 -4.32818,-15.02116 -13.77905,-42.36081 -29.23923,-84.24729 -40.21116,-127.44882 -9.04874,-37.27918 -15.40425,-76.36107 -8.53219,-114.54277 4.47043,-25.09226 16.1451,-49.14574 34.72163,-66.79781 3.41868,-3.79248 7.67949,-6.8611 11.13147,-10.52484 -0.7521,-1.55715 -3.57071,-0.76806 -4.97902,-1.53872 -11.98211,-2.2333 -23.64482,-7.22427 -32.29569,-16.03751 C 408.95236,137.79374 402.1666,120.47808 393.63768,104.69255 386.5447,90.543993 377.85582,76.786495 365.28516,66.865239 350.39905,54.713558 330.35604,52.09295 311.75261,52.049813 283.25599,51.509626 254.67476,55.013574 226.24696,52.318534 204.00625,49.95316 181.33836,41.765602 166,24.876812 161.12817,19.820024 157.32195,13.803177 153.51035,8.0186335 146.43513,8.1445825 139.3599,8.2705314 132.28468,8.3964803 Z"
       style="fill:#000000;fill-opacity:0;stroke:none;stroke-width:1.99722" />
    <path
       id="path1587"
       d="m 103.31946,165.6128 c -6.429874,0.0173 -13.105644,0.25555 -19.07426,2.90718 -2.499424,1.17967 -4.845401,2.88232 -6.436245,5.1653 -0.736974,1.39131 -0.724168,3.05167 -0.05512,4.46612 2.575611,7.41739 1.547676,15.37722 0.983303,23.05341 -0.2572,1.77021 -0.03668,3.6515 -0.660256,5.3478 -1.655422,2.22868 -4.386167,3.91086 -4.801198,6.87114 -0.308774,1.99025 -0.194608,4.11207 0.874276,5.87381 1.840196,3.40541 5.658801,5.23836 9.335065,5.88874 2.149385,0.31423 4.342123,0.36224 6.503153,0.3653 3.338967,-1.69952 6.860868,-4.02124 7.968244,-7.82487 0.603156,-2.63094 0.344964,-5.3765 0.523558,-8.05457 0.110022,-3.26438 0.223392,-6.61747 1.391067,-9.70634 1.264363,-0.77635 2.729303,0.46862 2.786813,1.79664 0.32897,1.03694 0.17941,2.26604 0.73986,3.2244 0.70545,0.383 0.65429,-0.75348 0.60293,-1.14728 0.0199,-8.47845 -0.26669,-16.95754 -0.1391,-25.43497 0.01,-1.1114 0.13535,-2.4137 1.19213,-3.08756 2.53942,-2.14945 5.99011,-2.5617 9.17138,-3.0189 5.95557,-0.3922 12.0205,-0.0903 18.01586,0.0162 26.96526,0.76612 53.93384,1.74545 80.88451,2.75774 6.47966,0.52293 12.91978,1.64773 19.35815,2.59549 0.73738,-0.066 1.14543,0.21871 0.99074,0.96846 -0.10298,0.75658 0.41075,1.92658 -0.64737,2.07687 -2.00613,0.72159 -4.12546,1.07513 -6.17966,1.63206 -8.22425,1.25296 -16.59298,1.82958 -24.91223,2.46824 -17.30114,1.23083 -34.65452,1.5556 -51.97007,2.5606 -4.26709,0.5921 -8.69171,0.46012 -12.86851,1.68997 -3.80764,1.4912 -6.31867,5.10599 -7.96585,8.69437 -0.35735,0.40549 0.0463,1.17418 0.54332,0.74793 7.44395,-3.61649 15.60437,-5.51831 23.72796,-6.86722 8.89308,-1.47593 17.90117,-1.8715 26.90804,-1.84925 16.43338,-0.16961 32.81726,1.65433 48.9643,4.63298 2.96668,0.48473 5.84471,1.33021 8.57749,2.59958 5.64891,2.38201 10.41584,6.40178 14.44368,10.94893 1.6101,1.72762 3.1925,3.58451 3.83638,5.89834 2.6263,7.85024 3.16148,16.44873 7.32962,23.75173 1.44607,2.58583 3.59065,4.85561 6.39772,5.94102 1.7006,0.81663 3.77566,1.29871 5.5984,0.63233 2.1206,-1.25889 2.35497,-4.01757 2.37401,-6.23732 -0.0573,-6.86207 -1.50626,-13.6503 -3.46679,-20.20145 -3.03495,-9.61431 -7.30322,-18.81687 -12.29665,-27.56323 -2.56837,-4.1479 -6.20576,-7.54064 -10.07162,-10.46673 -6.70939,-4.836 -14.62862,-7.97659 -22.83643,-9.02088 -21.59973,-3.00512 -43.45378,-3.09608 -65.21777,-3.43199 -16.13987,-0.25573 -32.30013,-0.30703 -48.41226,-1.27266 -3.99224,-0.37166 -7.99994,-0.42313 -12.01057,-0.38749 z"
       style="fill:#ff8080;fill-opacity:1;stroke:none;stroke-width:0.576273" />
    <path
       id="path1589"
       d="m 88.415558,238.73862 c -2.957883,0.16446 -5.687411,1.74464 -7.861611,3.67273 -2.630268,2.41515 -3.877238,6.10943 -3.464103,9.63572 0.171226,2.66751 0.921138,5.38367 2.762174,7.39817 1.331045,1.81006 3.186393,3.16426 4.490855,4.98609 1.487239,2.9466 1.652199,6.46599 3.601048,9.21738 -0.0049,1.44149 -0.995514,2.7058 -1.747954,3.87285 -2.913499,4.21738 -6.654207,7.98564 -8.548013,12.82507 -1.020156,2.66356 -0.501944,5.56539 -0.461092,8.33732 0.434145,5.96029 2.153716,11.72499 3.597378,17.49571 0.886615,3.41147 3.6047,5.91886 6.069871,8.26084 5.33807,4.67348 12.040538,7.44366 18.733099,9.5642 15.16312,4.58795 31.02111,6.02557 46.69799,7.7698 10.51926,1.18096 21.11646,2.08222 31.45653,4.35808 3.24171,0.69344 6.36244,1.77613 9.48516,2.84258 4.84979,1.05472 9.79353,1.71335 14.74548,2.02916 5.91606,0.0866 11.88408,0.09 17.70834,-1.09292 7.78426,-1.39548 15.30192,-4.02515 22.60064,-6.97718 1.0782,-0.22832 1.42685,-1.51401 2.10837,-2.24611 10.63995,-15.59085 21.20084,-31.5436 27.65345,-49.40502 0.49236,-1.59522 1.23774,-3.15209 1.52091,-4.78788 -0.14359,-1.40107 0.37645,-3.08512 -0.54419,-4.2982 -1.21296,-1.20481 -3.0651,-0.4016 -4.38842,0.15502 -2.99939,1.45142 -4.91872,4.34388 -7.05273,6.78154 -4.01722,4.93136 -8.09908,9.9955 -13.50753,13.46749 -2.46578,1.544 -5.27595,2.53266 -8.12143,3.17867 -6.21568,2.12579 -12.4252,4.2896 -18.77351,5.98166 -4.73474,1.31945 -9.57607,2.38216 -14.51616,2.46116 -18.50371,1.05581 -37.23502,-3.22294 -53.52591,-12.04664 -15.9363,-8.52664 -29.52084,-20.91622 -40.77104,-34.96315 -1.72629,-1.87367 -3.55689,-3.6846 -4.84266,-5.8973 -1.40789,-2.13087 -2.44265,-4.4786 -3.45385,-6.81599 -0.61595,-0.58649 -1.09395,0.62792 -1.46269,0.96791 -0.29359,1.73838 -0.11742,3.5998 -0.23121,5.38522 -0.12161,2.49719 0.17741,5.1768 -1.2778,7.37363 -0.51101,1.2855 -2.09833,1.78173 -3.31759,1.28079 -1.74437,-1.87849 -1.65572,-4.66299 -1.79963,-7.04946 -0.13573,-5.93099 -0.97089,-12.13492 -4.218447,-17.23461 -1.764183,-2.5991 -4.228443,-4.75296 -7.030942,-6.16175 -0.733799,-0.28129 -1.534532,-0.32862 -2.312783,-0.32258 z"
       style="fill:#ff8080;fill-opacity:1;stroke:none;stroke-width:0.576273" />
    <path
       id="path1605"
       d="m 279.2333,292.37751 c -0.20995,0.32542 0.17536,0.67334 0.0831,0.13436 -0.0198,-0.0376 -0.0279,-0.13097 -0.0831,-0.13436 z"
       style="fill:#ffaaaa;fill-opacity:1;stroke:none;stroke-width:0.687616" />
    <path
       style="fill:#e9ddaf;fill-opacity:1;stroke:none;stroke-width:0.469462"
       d="m 120.47002,172.7072 c -4.40138,0.095 -8.97044,0.17121 -13.09145,1.90406 -1.24359,0.56165 -2.47964,1.48131 -2.89927,2.81656 0.055,10.01061 0.0387,20.02588 0.38069,30.03134 0.011,0.87545 0.29192,1.77183 0.93109,2.38863 0.50239,-0.24318 0.70022,-0.97724 1.07963,-1.39439 1.69488,-2.60417 3.60331,-5.25544 3.98462,-8.43027 0.48757,-3.24961 0.66987,-6.5861 1.95244,-9.65083 0.52742,-1.25863 0.96326,-2.62891 1.63996,-3.77154 1.29317,-0.59245 2.85906,-1.68263 4.28515,-0.86878 1.0461,0.73225 1.2697,2.11873 1.18235,3.30979 0.0907,5.52358 -0.2188,11.0556 0.13508,16.57266 0.12784,0.83341 0.0217,1.77923 0.40949,2.53904 0.52964,-0.0426 0.81906,-0.73795 1.21033,-1.05435 1.69578,-2.00589 3.31338,-4.08137 4.94062,-6.14068 1.26847,-2.26603 2.11432,-4.7742 3.58676,-6.92387 1.78929,-2.66335 4.25273,-5.19509 7.49743,-5.9087 4.10515,-0.95174 8.357,-0.93223 12.52644,-1.49734 7.61327,-0.45689 15.25272,-0.68111 22.87725,-1.02431 17.71979,-0.77909 35.47958,-1.49192 53.07386,-3.85823 1.86622,-0.4081 3.69505,-0.93176 5.56382,-1.34248 0.48121,-0.16972 1.31891,-0.21972 1.07869,-0.94753 -0.0504,-0.40007 0.18713,-1.2283 -0.50102,-1.11713 -6.06134,-0.93604 -12.13169,-1.85342 -18.22089,-2.57085 -27.66225,-0.94496 -55.31869,-2.07544 -82.98949,-2.75369 -3.54555,-0.0637 -7.08745,-0.30605 -10.63358,-0.30711 z"
       id="path1643" />
    <path
       style="fill:#ececec;fill-opacity:1;stroke:none;stroke-width:0.469462"
       d="m 117.72768,186.25514 c -0.99813,0.0988 -1.89879,0.64637 -2.76229,1.10156 -1.17303,2.86174 -2.43791,5.74891 -2.70998,8.86747 -0.39455,3.13627 -0.64318,6.43528 -2.41343,9.16157 -1.15117,2.07502 -2.59408,3.96326 -3.85843,5.96437 -0.90019,1.69704 -1.69567,3.48171 -2.22339,5.32116 -0.0775,3.86908 0.0966,7.75619 -0.18739,11.61322 -0.16266,1.24375 -0.80638,2.61343 -0.22912,3.82638 0.45575,0.34714 0.99216,-0.25887 1.38675,-0.46427 0.93233,-1.01408 1.25597,-2.44625 2.09727,-3.53244 2.07725,-3.16064 5.07348,-5.5606 7.44405,-8.48507 2.10682,-3.25284 3.84797,-6.74603 5.28776,-10.33951 -0.51674,-3.91693 -0.70431,-7.86191 -0.51761,-11.81097 0.0214,-3.32331 0.14815,-6.66153 -0.12211,-9.97567 -0.18228,-0.51735 -0.56835,-1.23177 -1.19208,-1.2478 z"
       id="path1647" />
    <path
       style="fill:#f2f2f2;fill-opacity:1;stroke:none;stroke-width:0.469462"
       d="m 108.21003,236.13825 c -0.88369,0.20252 -1.00127,1.34269 -1.20765,2.07756 -0.51487,2.31337 -0.37403,4.70922 0.18968,6.99903 0.55282,2.84871 1.44731,5.68394 3.16123,8.06145 1.28207,3.14838 2.61356,6.36646 4.67309,9.12148 0.7862,1.01231 1.5356,2.15139 2.57672,2.89932 0.59151,-0.39727 0.50656,-1.33101 0.32359,-1.94005 -0.3238,-1.32832 -0.97396,-2.84249 -0.14986,-4.1296 0.57752,-1.0921 1.50849,-1.98091 2.15081,-2.99954 -2.68973,-5.32435 -5.17599,-10.75618 -8.05701,-15.98108 -0.94104,-1.48658 -1.87384,-3.14683 -3.42433,-4.07207 -0.0754,-0.0269 -0.15616,-0.04 -0.23627,-0.0365 z"
       id="path1649" />
    <path
       id="path1692"
       d="m 160.80746,65.012097 c -9.97937,-0.13959 -20.53066,0.655714 -29.00605,6.503024 -19.21425,11.585206 -35.397936,27.803234 -48.104838,46.163309 -5.651415,6.80581 -13.186511,11.84195 -18.521699,18.98514 -5.967473,6.72852 -7.168595,16.08336 -6.398663,24.72453 0.442605,2.57375 -0.05481,5.78149 1.539314,7.9365 5.394576,1.16671 10.771376,2.54791 15.578629,5.36391 2.968319,-3.08294 6.197099,-6.57743 10.655088,-7.64974 9.178864,-2.75845 19.081699,-1.50527 28.572609,-1.6798 29.28364,0.96112 58.59302,1.37483 87.87286,2.44689 14.79951,1.04175 30.47506,1.09898 43.94148,8.15259 8.17916,4.29132 14.67331,11.30513 18.5149,19.70534 6.78147,13.33658 12.65185,27.87327 12.74951,42.9854 0.20968,3.243 -1.97375,7.1823 -5.73084,6.39718 -6.10438,-0.98544 -10.05445,-6.40799 -11.79637,-11.97278 -2.70353,-6.82526 -3.38089,-14.33148 -6.30746,-21.04738 -6.17592,-9.33542 -16.32069,-15.74367 -27.40277,-17.34542 -25.25392,-4.25889 -51.32877,-6.30101 -76.70642,-1.87037 -7.15097,1.52927 -14.61715,3.00439 -20.96844,6.75611 -5.77475,5.35365 -9.83413,12.17708 -13.56018,19.0264 -3.37352,4.76195 -7.76302,8.79178 -10.85312,13.77602 -1.14965,1.40648 -2.4875,0.0923 -2.09476,-1.39617 -0.26951,-6.86598 -0.071,-14.01976 2.35887,-20.50706 -2.44431,-2.77779 -2.21565,-6.73431 -3.79435,-9.82661 -1.89749,-0.47277 -1.45573,2.77921 -1.706483,3.86294 -0.890416,5.66255 0.429153,12.1948 -3.13122,17.0796 -1.309806,1.8163 -4.089649,2.57308 -4.946573,4.4244 2.267396,1.56767 6.004745,3.59648 5.559476,6.7994 -0.88563,2.68801 -3.997261,3.71029 -5.541331,5.67036 2.819875,2.1742 5.777513,4.62948 7.375,7.99596 3.344641,5.67066 3.310101,12.32089 3.802421,18.64618 0.0645,1.57483 0.97448,5.17444 3.17137,3.48588 3.16797,-3.79348 0.66276,-9.4251 2.35484,-13.6754 1.77029,-2.47733 -1.3594,-5.10009 -1.41028,-7.71371 -0.6273,-3.67519 -1.72929,-8.07038 0.4002,-11.42137 2.59968,-1.14701 3.98979,2.61618 5.24496,4.29133 3.32825,5.11713 5.04172,11.29136 8.92137,16.00101 7.07126,2.85077 12.44068,9.12179 19.89851,11.33571 2.72608,0.88326 7.37457,1.21752 8.5279,-2.07765 -0.47903,-4.36877 -5.45139,-6.28584 -8.26775,-9.03497 -7.42604,-6.48017 -15.99765,-12.12089 -21.43076,-20.52383 -2.13266,-2.89025 -2.04227,-6.63505 -0.0505,-9.59644 5.8708,-10.92795 15.59547,-20.84664 28.35002,-22.68184 21.1944,-3.25017 43.06069,-0.23468 63.28203,6.62438 11.45188,3.96788 22.69994,9.84272 30.10743,19.75162 8.32621,9.98753 14.13899,22.44153 14.77765,35.48527 0.21429,6.56579 -6.48267,9.91501 -9.60282,14.87198 -0.89223,0.97046 -0.4511,3.24305 1.1129,2.13307 3.20135,-1.60648 4.7693,-6.03924 8.51613,-6.45364 3.56175,1.32375 2.03889,6.06879 2.3125,8.91432 0.30728,5.06831 -2.68736,9.36659 -6.30387,12.59692 -1.43488,2.02494 -4.35876,3.76611 -4.50157,6.39602 1.73674,0.9757 3.81653,-1.1695 5.4254,-1.74596 8.41318,-5.00367 12.84643,-14.3785 20.53932,-20.14617 1.67021,-0.95987 6.03469,-1.78317 5.63911,1.3881 0.64005,11.99504 1.47098,24.29606 -1.77621,36.01008 -1.14107,5.55996 -3.38569,11.35994 -2.25101,17.07661 0.75955,2.55963 3.85139,-0.0637 5.02117,2.07561 1.86678,2.08847 -0.90117,4.87399 -1.12298,7.10887 -1.89636,7.55363 1.54453,15.1157 2.88653,22.47419 5.06848,21.53897 11.76244,42.63582 18.79996,63.59738 4.46356,15.15711 8.55015,30.42992 13.89527,45.31431 3.05794,8.68631 5.66737,17.62571 9.12489,26.11815 1.18825,0.52326 4.63193,1.14009 4.07258,-1.10685 -13.61531,-49.93083 -27.12819,-100.06124 -35.03931,-151.25404 -5.71642,-42.21692 -6.64385,-84.93539 -6.52306,-127.49159 0.36567,-22.75438 5.87825,-45.70805 1.57843,-68.38847 -0.9712,-4.11948 -2.47375,-8.43687 -5.17907,-11.61434 C 271.07352,136.793 258.16708,131.50703 246.79637,123.63508 234.1788,114.88998 224.5625,102.1511 219.47682,87.680443 214.56854,77.579078 203.40363,72.720239 193.29554,69.428139 182.7881,66.115272 171.81945,64.615823 160.80746,65.012097 Z"
       style="fill:#ffd5d5;fill-opacity:1;stroke:none;stroke-width:1.94487" />
    <path
       id="path1694"
       d="m 278.75857,291.58367 c -0.96311,0.75314 -0.88979,2.33729 -1.52484,3.37054 -7.41384,18.36262 -18.66027,34.8295 -29.90762,51.02008 -4.18447,5.3772 -7.89554,11.59084 -8.45061,18.5242 -0.22008,5.96793 -0.14182,12.05497 1.81515,17.76928 4.3708,14.24715 13.18325,26.48413 20.12033,39.51347 7.04543,12.53991 13.04588,25.6988 16.93488,39.57925 4.03637,13.83812 7.02742,27.95283 10.54295,41.9384 2.00476,0.53134 4.34941,0.0742 6.48437,0.22682 9.46414,-0.0343 18.93413,0.0814 28.39466,-0.11694 0.49257,-0.89844 -0.59504,-2.13191 -0.70463,-3.14264 -6.93646,-20.62581 -14.46047,-41.0932 -19.7768,-62.21357 -2.843,-9.90115 -6.66977,-19.48133 -9.60684,-29.35653 -5.82291,-18.5619 -10.74918,-37.43739 -14.85275,-56.43293 -0.77659,-3.46207 0.86107,-6.93697 1.97731,-10.17943 0.47301,-1.14872 0.81193,-2.67445 -0.0852,-3.67339 -1.48276,-0.33123 -3.50274,0.23422 -4.67843,-0.93044 -1.05745,-2.32731 -0.56993,-5.05043 -0.46572,-7.52268 1.03567,-7.98963 4.57809,-15.53122 4.54609,-23.68301 0.13068,-4.77806 0.36619,-9.62407 -0.31827,-14.36286 -0.0633,-0.18483 -0.23038,-0.35971 -0.44405,-0.32762 z"
       style="fill:#ffaaaa;fill-opacity:1;stroke:none;stroke-width:0.972436" />
    <path
       id="path1696"
       d="m 127.95564,8.4818549 c -5.80069,0.2018867 -11.78005,-0.2524809 -17.48588,0.5070564 1.09926,13.7674537 2.67785,27.8122177 0.41331,41.5544357 -1.55981,12.055337 -10.42869,21.091858 -18.457364,29.471812 -16.907379,16.727184 -29.699566,36.937931 -43.927487,55.857991 -1.990248,3.18822 -5.037734,6.02566 -6.387747,9.42792 0.289203,7.73849 1.814479,15.73976 5.73227,22.49228 1.930579,3.1577 6.351767,1.22069 9.28125,1.79738 3.332727,0.77537 0.964591,-3.34263 1.141129,-5.08166 -1.698395,-10.12353 -0.02541,-21.17959 6.928427,-29.10887 7.124075,-8.41062 16.419189,-14.79419 22.495518,-24.12354 13.093204,-17.874152 29.968674,-33.208887 49.620414,-43.566983 11.12365,-4.498947 23.477,-3.637078 35.21875,-3.209677 15.02387,1.729394 30.91904,5.528351 42.5625,15.776212 5.50977,4.378745 6.14474,11.911071 9.74843,17.596531 7.31274,14.132177 19.83824,24.843867 33.85842,32.011327 8.27733,4.73661 17.28461,8.19671 25.28427,13.38912 4.32328,4.94701 5.35777,11.91466 6.29027,18.2152 2.33439,23.19415 -3.40892,46.30078 -2.79228,69.53379 0.30405,39.42762 1.19619,78.98822 6.45849,118.11255 7.85201,52.06225 21.37947,103.06028 35.61812,153.6808 1.97005,1.12438 4.8907,0.2829 7.1772,0.62522 43.18971,0.19451 86.37892,-0.37415 129.56776,-0.60103 0.13779,-3.60904 -2.20945,-7.43452 -3.04878,-11.10443 -11.63993,-35.96135 -24.42692,-71.56309 -35.10545,-107.81896 -7.99808,-27.98735 -14.74483,-56.54819 -17.05041,-85.60282 -0.71016,-18.50115 -1.49398,-37.31083 2.66305,-55.48081 4.80025,-24.36324 16.60268,-47.45201 34.64692,-64.66511 3.52501,-3.56504 7.38621,-6.76703 11.28479,-9.91053 -1.513,-1.46532 -4.79682,-0.98296 -6.98588,-1.71976 -15.52392,-2.67334 -29.40099,-11.90637 -38.50102,-24.66331 -9.42354,-12.88636 -15.26265,-27.90769 -23.03657,-41.7702 C 381.94104,81.919236 368.01379,64.547009 348.33367,57.311492 328.25483,50.444986 306.66082,51.967144 285.79505,52.38755 265.23089,53.056871 244.54745,54.184903 224.03931,52.118952 204.89832,49.620588 185.44263,43.282888 171.2002,29.716737 164.51819,23.46697 158.50702,16.303688 153.87399,8.4737903 c -8.63945,0.00394 -17.27891,-0.00875 -25.91835,0.00806 z"
       style="fill:#e3dedb;fill-opacity:1;stroke:none;stroke-width:1.94487" />
    <path
       id="path1698"
       d="m 247.18498,344.07056 c -5.48554,1.83839 -10.86251,4.03059 -16.52873,5.27974 -10.40186,2.5797 -21.29372,2.93997 -31.84357,1.22429 -0.52245,-0.23066 -1.72786,0.0104 -1.08839,0.72077 3.59428,2.95484 6.65422,6.5673 8.76338,10.73463 5.95174,11.64295 7.62046,24.83981 8.99318,37.66608 2.32542,24.20844 1.9129,48.64634 5.17943,72.7752 1.5521,9.88336 3.73926,20.0768 9.42831,28.49138 0.84732,1.01091 1.42815,2.70296 3.07113,2.18864 18.00549,0.12114 36.01532,0.48635 54.01971,0.2096 1.05786,-0.22745 -0.0516,-1.71776 -0.0318,-2.4118 -5.49971,-21.61176 -9.4504,-43.90922 -19.24731,-64.13281 -5.86018,-12.66748 -13.28513,-24.50382 -20.05319,-36.68526 -4.39354,-7.97851 -8.32357,-16.52756 -9.40767,-25.64412 -0.20093,-4.21382 -0.43948,-8.57155 0.1807,-12.68791 1.30126,-6.13538 4.69098,-11.55835 8.47808,-16.47187 0.19225,-0.30717 0.96331,-1.2363 0.0867,-1.25656 z"
       style="fill:#e3dedb;fill-opacity:1;stroke:none;stroke-width:0.972436" />
    <path
       id="path1700"
       d="m 163.75806,202.8246 c -7.88123,0.1916 -16.02128,0.55021 -23.40725,3.57207 -8.89598,4.38946 -15.75901,12.23577 -20.1535,21.02605 -1.28806,1.92947 -1.49968,4.42143 -0.40213,6.48823 2.62559,5.20653 7.18383,9.0837 11.3651,13.01496 5.18295,4.50788 10.65944,8.67978 15.98041,12.99309 1.66023,1.65861 3.78173,3.63525 3.5831,6.18987 -1.31486,2.44525 -4.63233,2.61359 -7.08689,2.39341 -5.04661,-0.42813 -9.30272,-3.64897 -13.39573,-6.34157 -2.5904,-1.572 -4.70348,-4.00391 -7.5698,-5.0725 -1.14023,-0.32062 -2.55394,-0.32808 -3.15171,0.90171 -1.07204,1.05798 -1.8,2.57886 -1.17389,4.07107 0.45096,1.24705 0.50831,2.55371 0.0509,3.79234 0.49674,1.76409 2.18745,2.95362 3.18952,4.44506 15.42741,18.36347 35.58798,33.49065 58.93973,39.91784 10.5761,2.83066 21.58874,4.09275 32.52852,3.44355 11.35914,-0.54281 22.00567,-4.99495 32.71774,-8.38508 3.13426,-4.8198 6.71577,-9.43865 11.26461,-13.03932 0.95426,-4.49917 2.06993,-9.24536 1.20262,-13.86038 -0.13746,-1.7572 -2.39156,-2.3375 -3.5504,-1.18397 -2.40024,1.84041 -3.93052,4.74266 -6.63508,6.16835 -0.99403,0.45764 -2.48167,-0.21358 -2.04183,-1.47631 0.17986,-3.17194 3.23413,-5.14918 5.19407,-7.39325 2.72561,-2.39407 4.90305,-5.71469 4.78173,-9.47067 -0.20814,-5.35521 -1.70124,-10.58698 -3.29964,-15.67241 -3.06662,-8.34973 -8.40727,-15.6475 -14.0658,-22.42033 -7.09908,-7.90904 -17.03159,-12.5137 -26.83487,-16.13232 -15.37408,-5.40298 -31.74046,-8.05583 -48.02953,-7.96949 z"
       style="fill:#ff0000;fill-opacity:1;stroke:none;stroke-width:0.972436" />
  </g>
  <g
     sodipodi:insensitive="true"
     style="display:inline"
     inkscape:label="drawing - voicebox"
     id="layer4"
     inkscape:groupmode="layer">
    <ellipse
       transform="matrix(0.97185246,-0.2355903,0.25004535,0.96823413,0,0)"
       ry="1.5759897"
       rx="19.391647"
       cy="409.90271"
       cx="160.99174"
       id="path1182"
       style="display:inline;fill:#ff8080;fill-opacity:1;stroke:#e50000;stroke-width:0.674305;stroke-miterlimit:4;stroke-dasharray:none;stroke-opacity:1" />
  </g>
  <g
     sodipodi:insensitive="true"
     style="display:inline"
     transform="translate(-13.65529,-21.40974)"
     id="layer1"
     inkscape:groupmode="layer"
     inkscape:label="drawing">
    <g
       transform="translate(0,-8.3981253)"
       id="g1196">
      <path
         style="fill:none;stroke:#000000;stroke-width:1px;stroke-linecap:butt;stroke-linejoin:miter;stroke-opacity:1"
         d="m 118.04239,238.18393 -0.25807,-12.51613 c 0.017,-5.88902 -0.0184,-11.77866 -0.12903,-17.66667 -0.14155,-7.78556 23.35484,-5.68816 23.35484,-5.68816 32.24064,0.69859 57.24785,1.8477 87.22581,2.83871 l 10.45161,1.41935 8.25806,1.29032 v 2.19355 c -2.03308,1.14213 -4.59181,0.98451 -6.45161,1.89457 -25.26796,3.33179 -52.51188,3.66445 -76.77419,4.90323 -4.76545,0.81351 -9.89467,0.4207 -14.06452,2.06451 -4.88753,2.60546 -6.81529,7.26755 -8.90323,12.16996"
         id="path46"
         sodipodi:nodetypes="cccccccccccs" />
      <path
         style="fill:none;stroke:#000000;stroke-width:1px;stroke-linecap:butt;stroke-linejoin:miter;stroke-opacity:1"
         d="m 73.267907,199.58523 c -5.673605,-25.10695 3.442614,-34.01965 22.193835,-49.91743 16.280328,-23.53005 30.728708,-37.7193 55.483868,-52.129028 26.4986,-8.417574 68.9423,-0.664336 81.54839,17.032258 11.85487,36.17445 38.37627,44.86556 64.25806,57.80645 12.90257,13.64787 5.3554,53.79631 4.12904,75.87097 -0.73706,20.13191 -0.18274,40.27917 0.77419,60.3871 1.19398,25.08885 2.28214,50.28595 6.19355,75.09677 7.99555,50.71724 22.74659,105.45314 35.18115,149.95931"
         id="path50"
         sodipodi:nodetypes="ccccccaac" />
      <path
         style="fill:none;stroke:#000000;stroke-width:1px;stroke-linecap:butt;stroke-linejoin:miter;stroke-opacity:1"
         d="m 123.59077,283.21619 c 0,0 1.68856,4.31904 2.83871,6.32258 1.40955,2.35908 3.14078,4.99771 4.90323,6.19355"
         id="path54" />
      <path
         style="fill:none;stroke:#000000;stroke-width:1px;stroke-linecap:butt;stroke-linejoin:miter;stroke-opacity:1"
         d="m 119.20368,240.89361 c 0,0 3.88904,-5.18523 5.03399,-8.17299 1.21676,-3.17514 0.90639,-6.76243 1.82479,-10.03636 0.56591,-2.01736 2.25616,-5.86684 2.25616,-5.86684 v 0 c 0,0 2.61443,-1.70758 3.69924,-1.02846 1.82326,1.14142 0.98838,4.20376 1.16129,6.34787 0.24452,3.03208 -0.27768,6.08352 -0.18248,9.12395 0.0833,2.65957 0.65862,7.95541 0.65862,7.95541"
         id="path56"
         sodipodi:nodetypes="csssssssc" />
      <path
         style="fill:none;stroke:#000000;stroke-width:1px;stroke-linecap:butt;stroke-linejoin:miter;stroke-opacity:1"
         d="m 293.21338,317.39095 c 0,0 0.91081,15.38257 0,22.99238 -1.04143,8.70112 -5.39383,16.37709 -4.39784,25.54708 0.95907,4.42932 5.9835,-1.09253 5.87201,4.64063 -1.51893,3.80531 -3.22741,7.4226 -2.58065,11.61289 6.18297,27.87773 13.84411,55.51598 23.74194,82.32258 5.35161,23.29973 14.25939,46.51631 21.80948,69.16656"
         id="path108"
         sodipodi:nodetypes="csccccc" />
      <path
         id="path162"
         style="fill:none;stroke:#000000;stroke-width:1px;stroke-linecap:butt;stroke-linejoin:miter;stroke-opacity:1"
         d="m 259.71981,335.21619 v 0 c 0,0 -18.86926,7.04798 -28.7742,8.25807 -41.08953,3.81026 -74.7931,-16.07272 -99.6129,-47.74194 2.09311,-1.76125 -0.43259,-4.03524 0.20412,-5.89572 0.48609,-1.42035 2.63459,-3.65267 2.63459,-3.65267 v 0 M 90.48933,206.20885 v 0 0 0 0 c 0,0 0.304621,-1.96922 0.714347,-2.86363 6.42491,-9.08005 21.677913,-8.15589 31.225803,-8.25806 39.55283,3.14431 86.31695,-0.16459 123.74194,5.67742 11.73391,2.56722 22.4252,8.83949 29.16129,18.32258 7.30359,12.90937 13.93518,27.50552 15.74193,42.06452 0.41052,4.14005 2.17497,14.28494 -4.64516,13.41935 -1.15701,-0.17398 -2.34223,-0.44612 -3.35484,-1.03226 -11.91406,-4.70304 -10.6508,-29.23226 -15.99462,-33.86907 -7.00835,-8.41966 -12.6246,-11.74865 -20.70794,-14.47771 -32.80513,-6.71042 -77.10473,-8.87709 -102.91034,3.18549 -0.94772,0.73059 -1.8166,1.58072 -2.63616,2.48869 -2.57155,2.84897 -4.65758,6.26747 -7.17029,8.35002 -1.65871,4.08801 -3.35396,7.56254 -5.93548,11.35484 v 0 c -2.94247,2.87237 -5.94697,5.66813 -7.74194,9.03226 -0.5583,1.06012 -0.77419,1.67742 -0.77419,1.67742 l -0.12903,0.25807 c 0,0 -1.92228,1.43765 -2.32259,0.90322 -1.05754,-1.4118 0.0808,-3.52701 0.12904,-5.29032 0.0388,-1.41948 0.12203,-2.83808 0.12903,-4.25807 0.01,-2.06494 -0.12903,-6.19355 -0.12903,-6.19355 v 0 c 0.52787,-1.98544 1.57252,-4.21225 2.32258,-5.80645 0.0289,-0.98226 -0.78907,-1.80022 -1.16129,-2.70968 -2.13872,-1.89752 -1.19824,-6.55449 -2.58065,-8 -0.43995,-0.42003 -1.25723,-0.51948 -1.80645,-0.25806 -3.76924,12.65459 3.43853,19.16358 -9.91871,25.62898 v 0 0 c 0,0 -1.89249,0.005 -2.83871,0 -4.491687,0.1304 -9.545958,-1.45375 -12.361226,-4.81717 -2.507392,-3.32094 -2.741323,-6.99884 -0.696764,-10.41716 1.054517,-1.74112 3.208716,-2.75039 3.974175,-4.63654 0.498862,-10.91643 2.701314,-20.08103 -1.324725,-29.47513 -5.101427,-4.84568 -10.568419,-5.37618 -17.221423,-6.62362 0,0 -6.666388,0.53049 -9.935436,0 -4.849186,-0.80426 -8.723341,-21.07425 -7.948349,-25.16977 12.113466,-16.45206 24.767161,-34.48795 36.429933,-49.67718 9.397905,-12.13766 22.940395,-21.37558 29.806305,-35.105212 6.05389,-16.219964 3.67315,-34.263432 1.98709,-51.664268 l 44.11122,-0.221177 c 44.84429,77.274757 144.07194,26.274897 199.78332,51.106094 54.47682,28.258103 39.42608,102.249773 107.48872,108.413243 -101.55798,76.24712 -24.32937,234.48933 5.96126,335.81774 l -121.87468,0.66237 -16.0473,-0.0554 -5.37167,-0.0186 -35.86825,-0.10009 -56.30794,-0.15712 c -26.31994,-28.63125 -1.0347,-139.25031 -38.7482,-154.33044 -25.35708,-10.94374 -97.0734,-3.64298 -112.270426,-31.79339 -1.74429,-7.30613 -4.399514,-15.74634 -3.974174,-22.85151 -1.159971,-7.46354 10.44874,-16.40609 10.92898,-20.86441 -2.212566,-2.80129 -2.291935,-7.2576 -3.974175,-9.93544 -2.375902,-1.92929 -4.603079,-4.47489 -5.961262,-6.9548 -2.880846,-8.45342 -0.0319,-14.67886 7.617168,-17.80265 1.545909,-0.60917 3.349939,-0.7914 4.967719,-0.41232 1.23774,0.29003 3.26495,1.97108 3.26495,1.97108 v 0 c 5.74562,4.01361 7.3337,10.3798 8.25806,16.64516 0.68249,2.73466 -0.58214,8.70917 1.83453,11.92308 0.43326,0.57619 2.17162,0.30606 2.72208,-0.43921 2.62779,-3.55776 1.33459,-8.10274 1.76597,-12.12903 v -1.16129 l 1.67742,-2.06452 c -2.46246,-3.30405 -3.02349,-7.14536 -3.74193,-11.09677 0.2313,-15.65051 7.86811,0.75175 9.80645,5.03226 l 4.12903,8.25806 c 0,0 0.1525,0.60623 0.3871,0.77419 m 0,0 c 0.77651,0.55592 1.95748,0.0191 2.83871,0.3871 7.13269,5.22046 18.6857,15.31081 26.32258,10.32258 0.37227,-0.26544 0.77469,-0.59349 0.90323,-1.03226 -0.36221,-4.70705 -5.45966,-7.33613 -8.64517,-9.80645 -5.26252,-4.77529 -23.92562,-17.69363 -23.2258,-26.06451 0.10717,-1.07337 0.81915,-1.99739 1.29032,-2.96775 4.65339,-9.48011 12.5351,-18.18362 22.19355,-21.93548 25.89811,-7.83811 77.91173,1.20126 96,20.64516 7.24095,8.64567 13.02854,16.6348 15.87097,26.58065 0.96308,4.67956 2.67456,9.49396 2.19354,13.93548 -0.17933,1.48534 -0.65484,2.97201 -1.41935,4.25806 -2.62268,4.59915 -9.15818,7.2654 -8.64516,12.12904 0.56134,0.65182 1.79553,0.35152 2.58064,0 2.48449,-1.94399 3.88115,-5.09506 6.58065,-6.45162 0.1975,-0.0954 0.64516,-0.12903 0.64516,-0.12903 2.87807,-0.5756 4.19874,4.07563 1.29032,16.12903 -4.70301,3.74746 -8.15342,7.99355 -11.2258,13.03226 14.14574,-2.08694 21.9238,-20.14773 28.01919,-23.11713 6.09539,-2.9694 6.41383,1.34616 5.47438,5.29189 l -1.27735,3.83207 c -7.06702,19.54273 -19.1237,36.94301 -30.83898,54.01383 -7.20112,8.86771 -9.3645,15.75587 -9.12396,24.45221 0.58456,21.13403 16.30054,38.90022 25.42414,58.10778 14.29273,25.65629 17.69445,49.99665 24.39284,75.77616"
         sodipodi:nodetypes="ccccscccccccccccccccccsccccccsscccccccccccccccccccccccccccccccccccccsscccssccccccccccccccccccccccsczcccacc" />
      <path
         style="fill:none;stroke:#000000;stroke-width:1px;stroke-linecap:butt;stroke-linejoin:miter;stroke-opacity:1"
         d="m 206.92727,379.08716 c 21.12021,4.32219 35.92216,1.83684 55.26465,-6.22254 h 0.36496"
         id="path1166"
         sodipodi:nodetypes="ccc" />
      <path
         style="fill:none;stroke:#000000;stroke-width:1.00157;stroke-linecap:butt;stroke-linejoin:miter;stroke-miterlimit:4;stroke-dasharray:none;stroke-opacity:1"
         d="m 103.73658,255.55485 c 0,0 7.05027,3.21032 6.99763,6.36244 -0.0533,3.1928 -7.29917,6.20429 -7.29917,6.20429"
         id="path1178"
         sodipodi:nodetypes="csc" />
    </g>
  </g>
</svg>
