<?xml version="1.0" encoding="UTF-8" standalone="no"?>
<svg
   xmlns:dc="http://purl.org/dc/elements/1.1/"
   xmlns:cc="http://creativecommons.org/ns#"
   xmlns:rdf="http://www.w3.org/1999/02/22-rdf-syntax-ns#"
   xmlns:svg="http://www.w3.org/2000/svg"
   xmlns="http://www.w3.org/2000/svg"
   xmlns:sodipodi="http://sodipodi.sourceforge.net/DTD/sodipodi-0.dtd"
   xmlns:inkscape="http://www.inkscape.org/namespaces/inkscape"
   sodipodi:docname="head.svg"
   inkscape:version="1.1-dev (bc69992, 2020-04-15)"
   id="svg8"
   version="1.1"
   viewBox="0 0 512.00001 512"
   height="512"
   width="512">
  <defs
     id="defs2" />
  <sodipodi:namedview
     inkscape:window-maximized="0"
     inkscape:window-y="0"
     inkscape:window-x="0"
     inkscape:window-height="1200"
     inkscape:window-width="1920"
     inkscape:snap-global="true"
     inkscape:showpageshadow="true"
     borderlayer="false"
     showborder="true"
     inkscape:pagecheckerboard="false"
     fit-margin-bottom="0"
     fit-margin-right="0"
     fit-margin-left="0"
     fit-margin-top="0"
     units="px"
     showgrid="false"
     inkscape:current-layer="layer1"
     inkscape:document-units="mm"
     inkscape:cy="210.41812"
     inkscape:cx="155.13899"
     inkscape:zoom="7.75"
     inkscape:pageshadow="2"
     inkscape:pageopacity="0.0"
     borderopacity="1.0"
     bordercolor="#666666"
     pagecolor="#ffffff"
     id="base" />
  <metadata
     id="metadata5">
    <rdf:RDF>
      <cc:Work
         rdf:about="">
        <dc:format>image/svg+xml</dc:format>
        <dc:type
           rdf:resource="http://purl.org/dc/dcmitype/StillImage" />
        <dc:title></dc:title>
      </cc:Work>
    </rdf:RDF>
  </metadata>
  <g
     transform="translate(-13.65529,-21.40974)"
     id="layer1"
     inkscape:groupmode="layer"
     inkscape:label="Layer 1">
    <path
       sodipodi:nodetypes="csssssssssssssssssssssssssssssssssssssssssssssssssssccccssssssssscssssssssssssssssssssssssssssssssssccssssssssccccsssssssssc"
       id="path24"
       d="m 104.06776,268.47092 -4.967719,1.32472 c -3.681883,0.98183 -8.941892,7.94835 -8.941892,7.94835 v 0 c 0,0 -1.748891,3.74938 -1.324725,5.63008 0.311035,1.37909 1.783649,2.19422 2.649449,3.31182 1.352151,1.74539 2.453474,3.69822 3.974175,5.2989 0.593852,0.62508 1.511873,0.93648 1.987087,1.6559 0.63524,0.96168 0.600316,2.22842 0.993544,3.31181 0.573688,1.58058 1.279618,3.11115 1.987091,4.63654 0.31158,0.67181 1.04483,1.24832 0.99354,1.98709 -0.14847,2.13831 -2.473763,3.50243 -3.642994,5.2989 -1.838389,2.82461 -3.940148,5.52658 -5.298899,8.61071 -0.972055,2.2064 -1.808115,4.55042 -1.987087,6.9548 -0.190072,2.5535 0.646887,5.08018 0.993543,7.61717 0.42272,3.09366 0.684759,6.21696 1.324725,9.27308 0.422692,2.01854 0.693667,4.13718 1.655906,5.96126 1.279419,2.42535 3.18873,4.54132 5.2989,6.29244 2.244416,1.86252 4.951826,3.12116 7.617166,4.30536 3.19025,1.41742 6.48956,2.75262 9.93544,3.31181 3.05111,0.49513 6.19383,-0.26961 9.27307,0 1.89843,0.16622 3.80881,0.43262 5.63008,0.99354 2.31387,0.71263 4.36239,2.11539 6.62363,2.98063 2.38033,0.91081 4.84276,1.59288 7.28598,2.31827 3.18364,0.94522 6.43277,1.6642 9.60426,2.64945 2.90059,0.90109 5.66017,2.25974 8.61071,2.98063 3.68535,0.90042 7.50102,1.14462 11.26016,1.65591 3.52761,0.4798 7.04877,1.04434 10.5978,1.32472 3.30336,0.26097 6.62631,0.15791 9.93543,0.33118 1.54733,0.081 3.185,-0.21089 4.63654,0.33118 1.03418,0.38621 1.62085,1.58626 2.64945,1.98709 1.03373,0.40283 2.27593,-0.0661 3.31181,0.33118 1.91728,0.73529 3.40923,2.30594 4.96772,3.643 1.65886,1.42317 3.47119,2.78743 4.63654,4.63653 1.06109,1.68368 1.68885,3.6624 1.98709,5.63008 0.43045,2.83992 -0.41234,5.7395 -0.33119,8.61071 0.0658,2.32783 0.36037,4.64572 0.66237,6.95481 0.26125,1.99748 0.7405,3.96272 0.99354,5.96126 0.32014,2.52845 -0.14062,5.19833 0.66236,7.61717 0.85903,2.58766 3.22491,4.45149 4.30536,6.9548 0.67912,1.57347 0.7393,3.35704 1.32472,4.96772 0.62421,1.71742 1.9225,3.18375 2.31827,4.96772 0.19128,0.86219 -0.12999,1.77592 0,2.64945 0.39063,2.62514 1.96517,4.98672 2.31827,7.61717 0.51426,3.83099 -0.50904,7.73008 -0.33118,11.59134 0.16885,3.66577 0.84442,7.29089 1.32472,10.92898 0.51084,3.86943 1.02444,7.73975 1.65591,11.59134 0.49044,2.99137 1.22093,5.94195 1.65591,8.94189 0.30264,2.08724 0.31765,4.21174 0.66236,6.29245 0.40706,2.4571 1.01692,4.87875 1.6559,7.28598 0.68091,2.56521 1.42848,5.11672 2.31827,7.61717 0.87973,2.47217 2.2231,4.77368 2.98063,7.28599 1.13752,3.77253 2.31827,11.59134 2.31827,11.59134 l 0.66236,0.99354 113.59516,0.33119 121.87468,-0.66237 c 0,0 -11.02273,-36.8765 -16.55906,-55.30726 -2.42139,-8.06093 -4.89971,-16.10483 -7.28599,-24.17623 -5.50726,-18.62786 -11.16673,-37.21564 -16.22787,-55.96962 -2.60904,-9.66777 -5.21241,-19.34736 -7.28599,-29.14395 -2.13467,-10.08523 -3.76879,-20.27419 -5.2989,-30.46867 -1.4369,-9.57348 -3.29568,-19.13828 -3.64299,-28.81276 -0.29351,-8.1758 0.66985,-16.3526 1.32472,-24.50741 0.66651,-8.29978 1.098,-16.65791 2.64945,-24.83859 2.32542,-12.26179 2.83412,-25.83569 9.93544,-36.09875 8.54364,-12.34753 36.42993,-26.4945 36.42993,-26.4945 0,0 -7.32465,-0.63537 -10.92898,-1.32472 -4.26056,-0.81486 -8.45934,-1.97158 -12.58489,-3.31182 -4.05548,-1.31747 -8.18009,-2.59279 -11.92252,-4.63653 -2.63564,-1.43932 -5.2124,-3.1267 -7.28599,-5.2989 -3.7421,-3.92006 -6.23499,-8.88345 -8.94189,-13.57843 -2.09603,-3.63546 -4.09622,-7.35412 -5.63008,-11.26016 -1.72379,-4.38969 -2.45312,-9.11443 -3.97417,-13.57843 -1.56703,-4.59894 -3.15831,-9.21682 -5.2989,-13.57843 -1.70161,-3.46715 -3.73594,-6.77877 -5.96126,-9.93544 -2.3048,-3.26942 -4.95824,-6.28454 -7.61717,-9.27307 -2.75051,-3.09146 -5.52916,-6.18028 -8.61071,-8.94189 -3.37672,-3.026131 -7.09539,-5.652802 -10.77002,-8.309272 -2.59677,-1.877267 -5.11671,-3.912747 -7.96214,-5.386151 -3.92674,-2.033325 -8.17003,-3.433409 -12.41157,-4.683609 -3.90646,-1.151432 -7.89815,-2.102928 -11.9432,-2.575986 -3.79985,-0.444383 -7.6491,-0.228124 -11.47484,-0.23418 -4.52816,-0.0072 -9.05546,0.336461 -13.58247,0.23418 -3.75324,-0.0848 -7.48956,-0.550004 -11.24066,-0.702541 -4.13451,-0.168128 -8.27695,-0.06868 -12.41157,-0.23418 -3.82904,-0.15327 -7.65543,-0.390882 -11.47484,-0.702542 -3.83208,-0.312693 -7.66807,-0.631449 -11.47485,-1.170902 -3.45642,-0.489804 -6.85263,-1.348835 -10.30394,-1.873444 -3.80975,-0.579093 -7.65834,-0.872241 -11.47484,-1.405083 -3.99104,-0.55721 -7.95286,-1.31122 -11.9432,-1.873444 -3.11593,-0.439023 -6.23369,-0.883206 -9.36722,-1.170902 -3.97125,-0.364609 -7.97752,-0.28179 -11.94321,-0.702542 -3.06297,-0.324975 -6.1241,-0.746509 -9.13304,-1.405082 -2.77572,-0.607529 -5.52414,-1.375775 -8.19631,-2.341805 -2.72806,-0.986234 -5.38058,-2.189625 -7.96214,-3.512707 -2.74024,-1.404411 -5.41451,-2.954181 -7.96213,-4.68361 -2.20914,-1.499656 -4.27972,-3.19885 -6.32288,-4.91779 -1.77597,-1.494148 -3.86213,-2.754138 -5.15197,-4.683609 -1.15269,-1.724306 -1.58373,-3.847656 -2.10762,-5.854512 -0.3598,-1.378275 -0.26203,-2.860608 -0.70254,-4.215249 -0.10796,-0.331984 -1.19828,-2.396555 -1.19828,-2.396555 L 123.60745,37.9688 c 0,0 2.48462,24.774804 1.32473,37.092295 -0.46699,4.959254 -1.08388,10.116801 -3.31182,14.571973 -6.86591,13.729632 -20.4084,22.967552 -29.806305,35.105212 -7.27532,9.39628 -13.471824,19.58586 -20.533235,29.14394 -5.143447,6.96199 -13.713643,12.15717 -15.896698,20.53324 -1.126132,4.32081 0.907973,8.91446 1.987087,13.24725 0.961938,3.86232 1.135097,8.47046 3.974175,11.26016 0.498007,0.48935 1.297911,0.55052 1.987087,0.66236 3.269048,0.53049 9.935436,0 9.935436,0 l 10.597799,1.98709 6.623624,4.63653 1.987087,4.63654 v 5.96126 c 0,2.75984 0.08612,5.52103 0,8.27953 -0.110447,3.53777 0.66864,7.3181 -0.662362,10.5978 -0.765459,1.88615 -2.919658,2.89542 -3.974175,4.63654 -0.615946,1.01699 -1.09988,2.14429 -1.324725,3.31181 -0.187887,0.97562 -0.458828,2.09938 0,2.98063 0.622302,1.19523 2.091768,1.74615 3.311812,2.31827 1.139604,0.5344 2.54284,0.38203 3.642994,0.99354 1.843438,1.02465 2.775371,3.31327 4.636537,4.30536 1.701329,0.90689 5.630082,1.32472 5.630082,1.32472"
       style="fill:none;stroke:#000000;stroke-width:1px;stroke-linecap:butt;stroke-linejoin:miter;stroke-opacity:1" />
    <path
       sodipodi:nodetypes="csssssssssssssssssssssssssssssssssssssssssssssssssssssssssssssssssssssssssssssssssssssssssssssssssc"
       id="path44"
       d="m 90.48933,206.20885 v 0 0 0 0 c 0,0 0.304621,-1.96922 0.714347,-2.86363 0.372743,-0.81368 0.904006,-1.57242 1.548387,-2.19354 0.850327,-0.81963 1.921005,-1.38851 2.967742,-1.93549 1.521933,-0.7953 3.132079,-1.43325 4.774194,-1.93548 2.18609,-0.66861 4.44616,-1.09915 6.70968,-1.41936 2.34846,-0.33222 4.72816,-0.39245 7.09677,-0.51613 2.70735,-0.14136 5.41812,-0.23147 8.12903,-0.25806 7.09696,-0.0696 14.19316,0.21505 21.29033,0.25806 3.95691,0.024 7.91582,-0.12096 11.87096,0 4.22098,0.12909 8.46932,0.14525 12.64517,0.7742 2.88835,0.43503 5.73653,-0.12341 8.51612,0.77419 2.38659,0.77069 8.62451,0.86882 11.09678,1.29032 5.17892,0.88296 6.62136,0.46434 11.87096,0.25807 5.84748,-0.22976 11.43867,1.2277 17.29033,1.29032 5.08154,0.0544 10.14704,0.59809 15.22581,0.77419 4.64317,0.161 9.35344,-0.50994 13.93548,0.25807 3.29997,0.55312 6.46685,1.79297 9.54839,3.09677 3.04774,1.2895 6.00294,2.83637 8.77419,4.64516 2.20503,1.43922 4.31671,3.05634 6.19355,4.90323 1.74286,1.71505 3.23187,3.68203 4.64516,5.67742 1.33873,1.89013 2.56482,3.86997 3.6129,5.93548 1.22164,2.40755 2.04389,4.99788 3.09678,7.48387 1.09687,2.58982 2.36418,5.10966 3.35484,7.74194 0.89113,2.36783 1.56346,4.81242 2.32258,7.22581 0.70213,2.23221 1.50645,4.43715 2.06451,6.70967 0.56332,2.29392 1.00536,4.62293 1.29032,6.96775 0.17672,1.45419 0.17205,2.92473 0.25807,4.38709 0.086,1.46237 0.45013,2.93485 0.25806,4.3871 -0.107,0.80903 -0.34516,1.62839 -0.77419,2.32258 -0.57561,0.93136 -1.31105,1.90359 -2.32258,2.32258 -0.63579,0.26335 -1.384,0.10233 -2.06452,0 -1.15701,-0.17398 -2.34223,-0.44612 -3.35484,-1.03226 -1.52756,-0.88421 -2.68559,-2.30517 -3.87096,-3.6129 -1.23636,-1.36399 -2.39835,-2.81415 -3.35484,-4.3871 -0.83972,-1.38092 -1.49072,-2.87618 -2.06452,-4.38709 -0.54118,-1.425 -0.83418,-2.93264 -1.29032,-4.3871 -0.40701,-1.29779 -0.94122,-2.55641 -1.29032,-3.87097 -0.45032,-1.69573 -0.38474,-3.53065 -1.03226,-5.16129 -0.599,-1.50847 -0.21887,-2.92143 -1.3033,-4.12903 -1.02331,-1.13953 -0.59157,-2.97754 -1.7881,-3.93359 -1.38544,-1.10699 -1.90897,-3.48829 -3.39912,-4.44971 -2.42444,-1.56421 -3.8553,-3.36951 -6.46458,-4.60089 -3.06472,-1.44632 -7.07068,-5.77138 -10.27071,-6.88678 -2.60058,-0.90645 -8.54738,-1.00093 -11.21663,-1.679 -2.75006,-0.69859 -3.29423,0.70112 -6.07369,0.13062 -2.64597,-0.5431 -8.24735,0.22761 -10.91429,-0.20082 -2.15032,-0.34544 -4.46635,-0.6398 -6.6341,-0.84978 -2.48448,-0.24066 -4.80565,-0.21505 -7.30139,-0.25807 -3.44035,-0.0593 -7.0642,0.72991 -10.50506,0.72991 -3.1828,0 -5.81832,-0.14997 -9.00095,-0.18247 -4.21571,-0.043 -8.06539,-0.16102 -12.2802,-0.25806 -3.35505,-0.0773 -6.57659,0.32191 -9.88203,-0.25807 -0.80379,-0.14103 -2.61193,0.63388 -3.41746,0.50316 -1.35857,-0.22047 -2.77245,-0.23237 -4.12904,0 -1.52851,0.26182 -2.98663,0.88236 -4.38709,1.54839 -1.63874,0.77935 -3.17001,1.78192 -4.64516,2.83871 -1.09232,0.78253 -2.10456,1.67453 -3.09678,2.58064 -0.98814,0.90239 -1.91158,1.87375 -2.83871,2.83871 -1.0544,1.09742 -2.13648,2.17419 -3.09677,3.35484 -0.46693,0.57407 -0.86998,1.19744 -1.29032,1.80645 -0.35236,0.51052 -0.61766,1.08699 -1.03226,1.54839 -0.44905,0.49973 -1.14583,0.75243 -1.54839,1.29032 -0.84261,1.12587 -1.10687,2.58565 -1.67742,3.87097 -0.42171,0.95001 -0.79423,1.92534 -1.29033,2.83871 -0.87699,1.61462 -2.96773,4.64516 -2.96773,4.64516 v 0 l -2.32258,2.32258 c -0.86022,0.86022 -1.80268,1.64539 -2.58065,2.58065 -1.06811,1.28407 -2.06043,2.65121 -2.83871,4.12903 -0.5583,1.06012 -0.77419,1.67742 -0.77419,1.67742 l -0.12903,0.25807 c 0,0 -1.92228,1.43765 -2.32259,0.90322 -1.05754,-1.4118 0.0808,-3.52701 0.12904,-5.29032 0.0388,-1.41948 0.12231,-2.83808 0.12903,-4.25807 0.01,-2.06494 -0.12903,-6.19355 -0.12903,-6.19355 v 0 c 0,0 0.86539,-2.69817 1.41935,-4 0.2636,-0.61947 0.88345,-1.13352 0.90323,-1.80645 0.0289,-0.98226 -0.78907,-1.80022 -1.16129,-2.70968 -0.71702,-1.75191 -1.54113,-3.47116 -2.06452,-5.29032 -0.25423,-0.88362 0.14891,-2.07475 -0.51613,-2.70968 -0.43995,-0.42003 -1.25723,-0.51948 -1.80645,-0.25806 -0.4529,0.21557 -0.63252,0.80916 -0.77419,1.29032 -0.37678,1.27971 -0.0873,2.66663 -0.12904,4 -0.0444,1.41931 -0.10752,2.83822 -0.12903,4.25807 -0.0156,1.03214 0,2.06451 0,3.09677 0,1.29032 0.26786,2.60876 0,3.87097 -0.26381,1.24314 -0.92087,2.37879 -1.54839,3.48387 -0.44194,0.77827 -0.98456,1.49848 -1.54838,2.19355 -0.51766,0.63816 -0.98141,1.36965 -1.67742,1.80645 -0.49551,0.31098 -1.13066,0.30808 -1.67742,0.51613 -0.83403,0.31736 -2.43484,1.11285 -2.43484,1.11285 v 0 0"
       style="fill:none;stroke:#000000;stroke-width:1px;stroke-linecap:butt;stroke-linejoin:miter;stroke-opacity:1" />
    <path
       sodipodi:nodetypes="cccscccccccccssssssssssssssc"
       id="path46"
       d="m 118.04238,237.40974 -0.25806,-11.74194 v -16.77419 c 0,0 0,6.20429 -0.12903,-0.89248 -0.14155,-7.78556 23.35484,-5.68816 23.35484,-5.68816 l 20,0.25806 21.41935,1.16129 15.48387,0.51613 14.70968,0.3871 15.61291,0.51613 10.45161,1.41935 8.25806,1.29032 v 2.19355 c 0,0 -2.42935,1.09288 -3.71062,1.74004 -0.92291,0.46636 -1.81611,0.63623 -2.74099,1.09867 -2.44821,1.22411 -5.41018,0.84496 -8.12903,1.16129 -4.28952,0.49908 -8.58912,0.96755 -12.90323,1.16129 -3.52333,0.15823 -7.20981,-1.03751 -10.58064,0 -1.24279,0.38252 -5.59281,0.78906 -6.83871,1.16129 -4.98719,1.49 -6.79509,0.74143 -12,0.7742 -4.4319,0.0279 -8.85967,0.2787 -13.29033,0.38709 -4.34364,0.10626 -8.69681,-0.029 -13.03225,0.25807 -2.67775,0.17729 -5.34685,0.50003 -8,0.90322 -2.03487,0.30923 -4.15975,0.38144 -6.06452,1.16129 -1.86569,0.76385 -3.55307,1.98506 -5.03226,3.35484 -1.48356,1.37382 -2.93835,2.91878 -3.74193,4.7742 -0.44966,1.03824 0.61201,3.4411 -0.51613,3.35483 -0.0858,-0.007 0,-0.25806 0,-0.25806"
       style="fill:none;stroke:#000000;stroke-width:1px;stroke-linecap:butt;stroke-linejoin:miter;stroke-opacity:1" />
    <path
       sodipodi:nodetypes="ccccccccccccccccccccccccccccccccccccccccccccccccccccccccccccccccccccccccccccccccccccccccccccccccccccccccccccccccccccccc"
       id="path48"
       d="m 104.06776,268.47092 3.26495,1.97108 2.70968,2.19355 2.45161,3.35484 1.41935,3.87096 0.90323,2.45162 0.77419,4.77419 0.51613,3.74194 v 2.8387 l 0.3871,1.67742 1.41935,2.70968 0.7742,0.51613 1.41935,-1.29032 1.16129,-4.12903 0.25807,-3.09678 0.38709,-3.6129 v -1.16129 l 1.67742,-2.06452 -1.41935,-2.32258 -1.29032,-3.09677 -1.03226,-5.67742 -0.12903,-2.06452 0.51613,-2.58064 0.77419,-1.41936 0.90322,-0.51613 1.93549,0.64516 1.29032,1.54839 1.41936,2.58065 3.09677,6.83871 4.12903,8.25806 0.3871,0.77419 2.83871,0.3871 3.35484,2.58065 4.38709,3.2258 5.16129,3.48387 5.54839,2.45162 h 4.3871 l 3.48387,-1.41936 0.90323,-1.03226 -0.3871,-2.58064 -1.80645,-1.93549 -3.09678,-2.70967 -3.35484,-2.58065 -8.64516,-6.83871 -5.29032,-5.41935 -3.35484,-3.22581 -2.70968,-3.35484 -2.45161,-3.6129 -0.77419,-3.6129 1.29032,-2.96775 2.70968,-5.03225 5.54838,-7.22581 6.32259,-5.16129 7.6129,-4.51613 8.25806,-1.54839 7.74194,-0.77419 8.12903,-0.64516 8.25807,0.51613 7.6129,0.77419 8.77419,2.06452 8,1.41935 8,1.54839 9.54839,3.09677 8.90323,4.25807 7.87096,5.16129 4.90323,4.77419 4.77419,5.67742 4.12903,5.93548 4.3871,7.61291 2.58065,7.35484 1.67742,7.6129 0.51612,6.32258 -1.41935,4.25806 -3.6129,3.87097 -2.58065,3.09678 -2.06451,2.58064 -0.3871,2.58065 h 2.58064 l 3.22581,-3.61291 3.35484,-2.83871 0.64516,-0.12903 c 2.90344,0.42968 4.19874,4.07563 1.29032,16.12903 l -8,7.74194 -3.2258,5.29032 4.38709,-0.38709 6.06452,-4 4.77419,-3.48388 2.39208,-7.58204 3.10215,-6.93421 4.56198,-4.74445 5.29189,-0.18248 2.18975,1.82479 1.64231,3.83206 -0.91239,3.83206 -0.36496,-0.18248 -0.91239,4.01455 -1.64232,4.74446 -2.37223,5.47437 -2.5547,4.92694 -1.45984,3.64958 -3.28462,4.74446 -3.28463,5.10942 -5.65685,9.30644 -4.19702,6.75173 -6.38677,9.30643 -5.83934,7.84661 -3.64958,8.57652 0.36496,8.02908 3.83206,10.76627 4.01454,8.21157 6.2227,17.45252 6.45161,11.35484 4.90323,10.32258 6.19355,9.29032 4.38709,15.74194 5.41936,18.32258 3.87097,14.19355 4.38709,17.54839 v 0.25806"
       style="fill:none;stroke:#000000;stroke-width:1px;stroke-linecap:butt;stroke-linejoin:miter;stroke-opacity:1" />
    <path
       sodipodi:nodetypes="cccccccccccccccccccccccccccccccccccccccccccccccccccc"
       id="path50"
       d="m 73.267907,199.58523 -2.06423,-11.20775 0.258065,-10.32258 4.903225,-7.74193 7.225807,-10.58065 11.870968,-10.06452 11.096778,-14.45161 11.09677,-13.41935 16,-14.19355 17.29032,-10.064518 10.06452,-3.612903 8.77419,-1.032258 8,0.774194 9.54839,1.548387 12.64516,2.064516 12.3871,3.354842 8.51613,3.35484 5.93548,2.32258 5.67742,8.25806 2.58064,8.77419 2.58065,7.22581 4.3871,8.77419 4.38709,6.70968 6.96775,5.41936 9.03225,7.2258 10.58065,5.67742 7.74193,1.29032 6.19355,1.80646 v 0 l 9.80645,4.90322 5.67742,5.41935 2.58065,5.93549 -1.29032,13.16129 -0.51613,16.51613 -1.29033,16.25806 -1.03225,18.58065 -0.51613,13.93548 -1.03226,30.96775 -0.77419,15.48387 1.80645,9.80645 4.64516,33.80645 2.32258,17.03226 0.51613,14.45161 4.64516,23.22581 5.67742,28.64516 4.90323,19.6129 6.19354,23.22581 4.3871,19.35484 3.09677,11.35484 3.61291,14.19354 2.58064,9.54839 v 0.77419"
       style="fill:none;stroke:#000000;stroke-width:1px;stroke-linecap:butt;stroke-linejoin:miter;stroke-opacity:1" />
    <path
       id="path52"
       d="m 337.52626,534.18393 -0.51613,-1.29032 -7.22581,-21.67742 -8.25806,-24.51613 -2.83871,-11.35484 -2.83871,-10.83871 -6.19355,-16.77419 -5.67742,-19.09677 -3.35484,-13.16129 -4.64516,-15.22581 -3.87097,-18.06452 0.7742,-10.83871 2.06452,-1.80644 v 0"
       style="fill:none;stroke:#000000;stroke-width:1px;stroke-linecap:butt;stroke-linejoin:miter;stroke-opacity:1" />
    <path
       id="path54"
       d="m 123.59077,283.21619 2.83871,6.32258 3.87097,5.41936 1.03226,0.77419 0.20412,-5.89572 2.63459,-3.65267 v 0"
       style="fill:none;stroke:#000000;stroke-width:1px;stroke-linecap:butt;stroke-linejoin:miter;stroke-opacity:1" />
    <path
       sodipodi:nodetypes="csssssssc"
       id="path56"
       d="m 119.20368,240.89361 c 0,0 3.88904,-5.18523 5.03399,-8.17299 1.21676,-3.17514 0.90639,-6.76243 1.82479,-10.03636 0.56591,-2.01736 2.25616,-5.86684 2.25616,-5.86684 v 0 c 0,0 2.61443,-1.70758 3.69924,-1.02846 1.82326,1.14142 0.98838,4.20376 1.16129,6.34787 0.24452,3.03208 -0.27768,6.08352 -0.18248,9.12395 0.0833,2.65957 0.65862,7.95541 0.65862,7.95541"
       style="fill:none;stroke:#000000;stroke-width:1px;stroke-linecap:butt;stroke-linejoin:miter;stroke-opacity:1" />
    <path
       sodipodi:nodetypes="ccccc"
       id="path108"
       d="m 293.21338,317.39095 v 22.99238 l -6.20429,25.54708 7.93653,3.60837 v 0"
       style="fill:none;stroke:#000000;stroke-width:1px;stroke-linecap:butt;stroke-linejoin:miter;stroke-opacity:1" />
  </g>
</svg>
